<?xml version="1.0" encoding="UTF-8"?>
<svg version="1.1" xmlns="http://www.w3.org/2000/svg" width="200" height="200">
<path d="M0 0 C66 0 132 0 200 0 C200 66 200 132 200 200 C134 200 68 200 0 200 C0 134 0 68 0 0 Z " fill="#FDFEFE" transform="translate(0,0)"/>
<path d="M0 0 C2.57739101 0.10147788 5.11653122 0.04170938 7.6940918 -0.03564453 C19.02318911 -0.046523 19.02318911 -0.046523 23.09939575 3.27593994 C25.94868681 6.55208847 27.84720296 10.25557721 29.65689087 14.17901611 C30.8554828 16.71979456 32.32499394 19.06766843 33.80541992 21.45263672 C34.81194078 23.16725039 35.81583074 24.88341107 36.81713867 26.60107422 C37.92461812 28.48814139 39.03270602 30.37485159 40.14135742 32.26123047 C40.69484863 33.20369629 41.24833984 34.14616211 41.81860352 35.1171875 C44.56411754 39.77255519 47.34526054 44.40637761 50.12963867 49.03857422 C50.87467651 50.27824951 50.87467651 50.27824951 51.63476562 51.54296875 C52.33218872 52.7028833 52.33218872 52.7028833 53.04370117 53.88623047 C53.47070312 54.60568848 53.89770508 55.32514648 54.33764648 56.06640625 C55.29748411 57.63708615 56.34000711 59.15693454 57.40307617 60.65966797 C58.93864591 63.88872064 58.51527674 65.57704789 57.50463867 68.97607422 C55.90307617 72.01904297 55.90307617 72.01904297 53.87963867 75.16357422 C53.52353516 75.71948242 53.16743164 76.27539062 52.80053711 76.84814453 C52.06619081 77.99429816 51.32854896 79.13834693 50.58764648 80.28027344 C49.54657856 81.91040369 48.55182716 83.56983323 47.55932617 85.22998047 C46.9637793 86.21869141 46.36823242 87.20740234 45.75463867 88.22607422 C45.22354492 89.11810547 44.69245117 90.01013672 44.14526367 90.92919922 C42.25550843 93.28689386 41.36906861 93.41439238 38.50463867 93.97607422 C38.17367187 93.41436523 37.84270508 92.85265625 37.50170898 92.27392578 C31.46596785 82.03435117 25.42217321 71.79953041 19.31713867 61.60107422 C18.58720703 60.38170166 18.58720703 60.38170166 17.8425293 59.13769531 C14.13749561 52.9737989 10.34075831 46.87027269 6.44921875 40.82226562 C3.50463867 36.19167107 3.50463867 36.19167107 3.50463867 33.97607422 C2.84463867 33.97607422 2.18463867 33.97607422 1.50463867 33.97607422 C1.24561768 34.67893555 0.98659668 35.38179687 0.71972656 36.10595703 C-0.600478 39.22436668 -2.18894909 41.99773559 -3.93676758 44.89794922 C-4.93546875 46.55890625 -4.93546875 46.55890625 -5.9543457 48.25341797 C-6.29941162 48.82302246 -6.64447754 49.39262695 -7 49.97949219 C-8.06173173 51.73246445 -9.11784228 53.4887273 -10.1730957 55.24560547 C-15.34814345 63.82885634 -15.34814345 63.82885634 -16.49536133 64.97607422 C-19.23430218 65.06466068 -21.94789403 65.09130901 -24.68676758 65.07373047 C-25.50660629 65.07231552 -26.32644501 65.07090057 -27.17112732 65.06944275 C-29.80007515 65.06382711 -32.42893906 65.05127201 -35.05786133 65.03857422 C-36.83585489 65.03356123 -38.61384979 65.02899798 -40.3918457 65.02490234 C-44.75971678 65.0138526 -49.12752481 64.99657753 -53.49536133 64.97607422 C-52.17267607 60.49669682 -50.39657272 56.90019451 -47.89379883 52.96435547 C-47.1715804 51.81707073 -46.44991863 50.66943542 -45.72875977 49.52148438 C-45.35859741 48.93594788 -44.98843506 48.35041138 -44.60705566 47.74713135 C-42.81971133 44.89968594 -41.08539707 42.02161522 -39.34692383 39.14404297 C-38.64391279 37.98316666 -37.9407871 36.82235977 -37.23754883 35.66162109 C-36.18238818 33.91866103 -35.12756908 32.17549693 -34.07348633 30.43188477 C-33.72801758 29.86058838 -33.38254883 29.28929199 -33.02661133 28.70068359 C-32.67943558 28.12495605 -32.33225983 27.54922852 -31.9745636 26.95605469 C-31.26388257 25.788748 -30.54441612 24.62674542 -29.81632996 23.47021484 C-27.79979165 20.24923172 -26.0171166 17.03181517 -24.39892578 13.59130859 C-18.60305842 1.90397343 -12.91153116 -0.57648496 0 0 Z " fill="#48ADBB" transform="translate(98.495361328125,31.02392578125)"/>
<path d="M0 0 C2.60600905 2.37007008 4.26066713 4.89384297 6.03125 7.9296875 C6.59457031 8.89003906 7.15789062 9.85039063 7.73828125 10.83984375 C8.31964844 11.84144531 8.90101563 12.84304687 9.5 13.875 C10.65621225 15.85158458 11.81246104 17.82814779 12.96875 19.8046875 C13.47857422 20.68108887 13.98839844 21.55749023 14.51367188 22.46044922 C15.5373823 24.20956812 16.6004878 25.93602398 17.69482422 27.6418457 C19 30 19 30 18.9140625 32.92578125 C17.86276273 36.46156294 16.37075591 39.08598744 14.375 42.1875 C13.84084473 43.0213623 13.84084473 43.0213623 13.29589844 43.87207031 C12.56155214 45.01822394 11.82391029 46.16227271 11.08300781 47.30419922 C10.04193989 48.93432947 9.04718849 50.59375901 8.0546875 52.25390625 C7.45914063 53.24261719 6.86359375 54.23132813 6.25 55.25 C5.71890625 56.14203125 5.1878125 57.0340625 4.640625 57.953125 C2.75086976 60.31081964 1.86442994 60.43831816 -1 61 C-3.06452187 57.52202944 -5.12624017 54.04240467 -7.1875 50.5625 C-7.76564453 49.58861328 -8.34378906 48.61472656 -8.93945312 47.61132812 C-12.38563137 41.78981799 -15.75430362 35.93575626 -19 30 C-18.39671875 29.43152344 -17.7934375 28.86304687 -17.171875 28.27734375 C-15.10700382 26.11220005 -13.73154315 24.14648555 -12.25 21.5625 C-10.49110663 18.5395426 -8.72109994 15.53044205 -6.87109375 12.5625 C-6.50918945 11.98169678 -6.14728516 11.40089355 -5.77441406 10.80249023 C-4.72936274 9.12951611 -3.68306661 7.45731977 -2.63671875 5.78515625 C-0.90323269 3.05638847 -0.90323269 3.05638847 0 0 Z " fill="#8BCBD3" transform="translate(138,64)"/>
<path d="M0 0 C0.66 0 1.32 0 2 0 C3.46857337 2.20286006 4.81049391 4.39441406 6.125 6.6875 C6.92726489 8.06445556 7.73067338 9.44074537 8.53515625 10.81640625 C8.94266113 11.51523926 9.35016602 12.21407227 9.77001953 12.93408203 C10.93321961 14.88783334 12.13751545 16.80493668 13.37109375 18.71484375 C13.92482666 19.57879761 13.92482666 19.57879761 14.48974609 20.46020508 C15.50930762 22.04245133 16.53762235 23.61904711 17.56640625 25.1953125 C19.12899047 28.25235737 19.57721019 29.63643879 19 33 C17.56640625 35.83984375 17.56640625 35.83984375 15.5625 38.9375 C15.20994141 39.48946045 14.85738281 40.0414209 14.49414062 40.61010742 C13.73822441 41.79048184 12.97714504 42.96756275 12.21142578 44.14160156 C10.95147153 46.07444553 9.70671638 48.01643267 8.46484375 49.9609375 C6.32085699 53.31446037 4.16375563 56.65920138 2 60 C-2.75637949 58.41454017 -4.23263101 54.34341223 -6.75 50.1875 C-7.26949219 49.36701172 -7.78898437 48.54652344 -8.32421875 47.70117188 C-9.05318359 46.50911133 -9.05318359 46.50911133 -9.796875 45.29296875 C-10.24385742 44.5661792 -10.69083984 43.83938965 -11.15136719 43.09057617 C-12.17698353 40.5640075 -11.94270586 39.51552579 -11 37 C-9.31578947 33.31578947 -9.31578947 33.31578947 -8 32 C-9.299375 31.87625 -10.59875 31.7525 -11.9375 31.625 C-14.15234375 31.4140625 -14.15234375 31.4140625 -16 31 C-16.33 30.34 -16.66 29.68 -17 29 C-16.06421005 26.64018187 -15.06652192 24.30368736 -14 22 C-13.34 22 -12.68 22 -12 22 C-11.79375 21.195625 -11.5875 20.39125 -11.375 19.5625 C-9.87357325 15.67243978 -7.8907096 12.66977614 -5.53125 9.2578125 C-3.50048434 6.26346926 -1.75066714 3.16466753 0 0 Z " fill="#4AAEBB" transform="translate(119,34)"/>
<path d="M0 0 C0.66 0 1.32 0 2 0 C2 0.66 2 1.32 2 2 C2.66 2 3.32 2 4 2 C4.25652344 2.47566406 4.51304688 2.95132813 4.77734375 3.44140625 C7.98913405 9.31346731 11.40198164 15.05084927 14.87670898 20.76977539 C16.71484558 23.80592315 18.41075549 26.82151098 20 30 C7.79 30 -4.42 30 -17 30 C-15.38727981 25.16183944 -13.96844602 22.01296473 -11.3125 17.8125 C-10.7872876 16.97972534 -10.7872876 16.97972534 -10.25146484 16.13012695 C-9.5286281 14.98528255 -8.80336103 13.84196903 -8.07568359 12.70019531 C-7.03002159 11.04745128 -6.00875007 9.37935449 -4.98828125 7.7109375 C-4.37339844 6.71320313 -3.75851563 5.71546875 -3.125 4.6875 C-2.57070313 3.78386719 -2.01640625 2.88023438 -1.4453125 1.94921875 C-0.96835937 1.30597656 -0.49140625 0.66273437 0 0 Z " fill="#1E9AA8" transform="translate(62,66)"/>
<path d="M0 0 C1.32 0 2.64 0 4 0 C5.84692383 2.23144531 5.84692383 2.23144531 7.70703125 5.328125 C8.37541016 6.43800781 9.04378906 7.54789062 9.73242188 8.69140625 C10.07329834 9.2755127 10.4141748 9.85961914 10.76538086 10.46142578 C11.80725974 12.24104916 12.8769464 14.00147678 13.95117188 15.76171875 C19.12902401 24.48390395 19.12902401 24.48390395 18 29 C7.44 29 -3.12 29 -14 29 C-15.44515434 23.21938264 -12.89107581 20.71403989 -9.95117188 15.76171875 C-9.59982178 15.18599121 -9.24847168 14.61026367 -8.88647461 14.01708984 C-7.81450842 12.2533046 -6.77272329 10.47400734 -5.73242188 8.69140625 C-5.06404297 7.58152344 -4.39566406 6.47164063 -3.70703125 5.328125 C-3.0931958 4.3062207 -2.47936035 3.28431641 -1.84692383 2.23144531 C-1.23743896 1.49506836 -0.6279541 0.75869141 0 0 Z " fill="#1E9AA8" transform="translate(99,97)"/>
<path d="M0 0 C7 8.75 7 8.75 7 13 C7.66 13 8.32 13 9 13 C10.50519387 15.62214328 12.00431319 18.24744208 13.5 20.875 C13.92925781 21.62136719 14.35851562 22.36773437 14.80078125 23.13671875 C15.20683594 23.85214844 15.61289063 24.56757812 16.03125 25.3046875 C16.59682617 26.2944458 16.59682617 26.2944458 17.17382812 27.30419922 C18 29 18 29 18 31 C6.12 31 -5.76 31 -18 31 C-16.39758517 26.99396291 -14.76470047 23.73879161 -12.55859375 20.078125 C-11.89279297 18.97082031 -11.22699219 17.86351562 -10.54101562 16.72265625 C-10.19594971 16.15305176 -9.85088379 15.58344727 -9.49536133 14.99658203 C-8.4336296 13.24360977 -7.37751904 11.48734692 -6.32226562 9.73046875 C-1.14721788 1.14721788 -1.14721788 1.14721788 0 0 Z " fill="#8CCBD5" transform="translate(82,33)"/>
<path d="M0 0 C11.88 0 23.76 0 36 0 C34.68253567 3.29366083 33.54568415 5.97588509 31.79296875 8.9609375 C31.1597168 10.03988281 31.1597168 10.03988281 30.51367188 11.140625 C30.07603516 11.87796875 29.63839844 12.6153125 29.1875 13.375 C28.76146484 14.10460937 28.33542969 14.83421875 27.89648438 15.5859375 C25.15165244 20.23678738 22.37200363 24.77524174 19 29 C18.01 29 17.02 29 16 29 C14.51367188 27.05981445 14.51367188 27.05981445 12.96875 24.36328125 C12.40542969 23.39326172 11.84210938 22.42324219 11.26171875 21.42382812 C10.38966797 19.8837207 10.38966797 19.8837207 9.5 18.3125 C8.91863281 17.30509766 8.33726562 16.29769531 7.73828125 15.25976562 C6.64915057 13.37185604 5.56467329 11.481249 4.48632812 9.5871582 C3.4613036 7.80296226 2.4001928 6.03918168 1.31054688 4.29370117 C0 2 0 2 0 0 Z " fill="#1F9AA8" transform="translate(121,96)"/>
<path d="M0 0 C11.88 0 23.76 0 36 0 C33.78991434 6.63025699 30.72021947 11.92934173 27.125 17.875 C26.49980469 18.94492188 25.87460938 20.01484375 25.23046875 21.1171875 C24.62074219 22.1278125 24.01101562 23.1384375 23.3828125 24.1796875 C22.82996582 25.10507324 22.27711914 26.03045898 21.70751953 26.98388672 C21.14403809 27.6492041 20.58055664 28.31452148 20 29 C18.68 29 17.36 29 16 29 C15.5153125 28.14019531 15.030625 27.28039062 14.53125 26.39453125 C10.34264669 18.99916022 6.0206885 11.72493187 1.46875 4.546875 C0 2 0 2 0 0 Z " fill="#8FCBD3" transform="translate(45,96)"/>
<path d="M0 0 C0.66 0 1.32 0 2 0 C3.5596363 2.28525859 4.98405715 4.55197646 6.375 6.9375 C6.98118164 7.96496338 6.98118164 7.96496338 7.59960938 9.01318359 C15.37817817 22.36723383 15.37817817 22.36723383 16 29 C15 30 15 30 11.94897461 30.11352539 C10.60008729 30.11336634 9.25119386 30.10767612 7.90234375 30.09765625 C6.83905602 30.09553383 6.83905602 30.09553383 5.75428772 30.09336853 C3.48198288 30.08775443 1.20977525 30.07519963 -1.0625 30.0625 C-2.59960796 30.05748681 -4.13671745 30.05292359 -5.67382812 30.04882812 C-9.44925642 30.03778042 -13.22461171 30.02050641 -17 30 C-16.01 27.36 -15.02 24.72 -14 22 C-13.34 22 -12.68 22 -12 22 C-11.79375 21.195625 -11.5875 20.39125 -11.375 19.5625 C-9.87357325 15.67243978 -7.8907096 12.66977614 -5.53125 9.2578125 C-3.50048434 6.26346926 -1.75066714 3.16466753 0 0 Z " fill="#1D9AA8" transform="translate(119,34)"/>
<path d="M0 0 C1.98 0 3.96 0 6 0 C6.33 0.66 6.66 1.32 7 2 C7.99 1.34 8.98 0.68 10 0 C14.2209225 -0.36703674 17.17742309 0.20114028 21 2 C21.66 1.34 22.32 0.68 23 0 C27.13076341 -0.54557253 29.23173216 -0.52472472 32.7109375 1.8515625 C36.04045323 6.43106707 35.55283026 10.30708842 35.3125 15.8125 C35.28994141 16.79154297 35.26738281 17.77058594 35.24414062 18.77929688 C35.18539727 21.18777455 35.10332129 23.59309078 35 26 C33.02 26 31.04 26 29 26 C28.505 16.595 28.505 16.595 28 7 C26.02 7 24.04 7 22 7 C21.67 13.27 21.34 19.54 21 26 C19.02 26 17.04 26 15 26 C14.67 19.73 14.34 13.46 14 7 C12.02 7 10.04 7 8 7 C6.48578999 8.51421001 6.78690144 9.92472768 6.68359375 12.03515625 C6.64169922 12.84404297 6.59980469 13.65292969 6.55664062 14.48632812 C6.51732422 15.33646484 6.47800781 16.18660156 6.4375 17.0625 C6.39431641 17.91650391 6.35113281 18.77050781 6.30664062 19.65039062 C6.20023298 21.76672037 6.09958269 23.88333813 6 26 C4.02 26 2.04 26 0 26 C0 17.42 0 8.84 0 0 Z " fill="#2C98A4" transform="translate(48,141)"/>
<path d="M0 0 C3.8053125 0.1546875 3.8053125 0.1546875 7.6875 0.3125 C7.6875 8.8925 7.6875 17.4725 7.6875 26.3125 C5.7075 26.3125 3.7275 26.3125 1.6875 26.3125 C1.3575 25.6525 1.0275 24.9925 0.6875 24.3125 C0.0275 24.9725 -0.6325 25.6325 -1.3125 26.3125 C-8.30690353 26.98937776 -8.30690353 26.98937776 -11.53515625 24.81640625 C-14.03506418 21.29455793 -13.93541405 18.03646161 -13.875 13.875 C-13.89884766 13.12412109 -13.92269531 12.37324219 -13.94726562 11.59960938 C-13.93671129 7.59951773 -13.57136894 5.69980004 -11.296875 2.296875 C-7.3477395 -0.32898996 -4.60974177 -0.26568439 0 0 Z " fill="#3399A5" transform="translate(101.3125,140.6875)"/>
<path d="M0 0 C3.46679688 0.04882812 3.46679688 0.04882812 6.93359375 0.09765625 C9.08262926 6.30940558 10.95247275 12.55326476 12.62109375 18.91015625 C12.84603516 19.74224609 13.07097656 20.57433594 13.30273438 21.43164062 C13.62081055 22.63723633 13.62081055 22.63723633 13.9453125 23.8671875 C14.13569092 24.58495361 14.32606934 25.30271973 14.5222168 26.04223633 C14.93359375 28.09765625 14.93359375 28.09765625 14.93359375 32.09765625 C12.95359375 32.09765625 10.97359375 32.09765625 8.93359375 32.09765625 C8.27359375 30.11765625 7.61359375 28.13765625 6.93359375 26.09765625 C3.63359375 25.76765625 0.33359375 25.43765625 -3.06640625 25.09765625 C-3.39640625 27.40765625 -3.72640625 29.71765625 -4.06640625 32.09765625 C-6.04640625 32.09765625 -8.02640625 32.09765625 -10.06640625 32.09765625 C-9.47901117 24.99017577 -7.99907982 18.45317758 -6.06640625 11.59765625 C-5.793125 10.59734375 -5.51984375 9.59703125 -5.23828125 8.56640625 C-2.90190889 0.13714125 -2.90190889 0.13714125 0 0 Z " fill="#2999A6" transform="translate(11.06640625,134.90234375)"/>
<path d="M0 0 C2.3828125 0.39453125 2.3828125 0.39453125 5.5078125 1.64453125 C8.65641186 6.26247697 7.68033903 10.92004308 7.3828125 16.39453125 C2.7628125 16.39453125 -1.8571875 16.39453125 -6.6171875 16.39453125 C-6.2871875 17.71453125 -5.9571875 19.03453125 -5.6171875 20.39453125 C-1.3271875 20.72453125 2.9628125 21.05453125 7.3828125 21.39453125 C7.3828125 23.04453125 7.3828125 24.69453125 7.3828125 26.39453125 C4.98506505 26.5302528 2.59506005 26.62889993 0.1953125 26.70703125 C-0.81499023 26.76987305 -0.81499023 26.76987305 -1.84570312 26.83398438 C-5.57795375 26.92501488 -7.46831548 26.49647407 -10.56640625 24.375 C-13.11443151 20.67186995 -13.36249889 17.74178296 -13.2421875 13.39453125 C-13.26152344 12.69585937 -13.28085938 11.9971875 -13.30078125 11.27734375 C-13.26440454 7.42141296 -12.71892182 5.52999853 -10.390625 2.4296875 C-6.65845262 -0.30899111 -4.48104745 -0.28758961 0 0 Z " fill="#3F9AA4" transform="translate(144.6171875,140.60546875)"/>
<path d="M0 0 C1.98 0 3.96 0 6 0 C6.33 3.63 6.66 7.26 7 11 C7.33 10.67 7.66 10.34 8 10 C10.1796875 9.796875 10.1796875 9.796875 12.875 9.75 C13.75929687 9.72421875 14.64359375 9.6984375 15.5546875 9.671875 C18 10 18 10 19.63452148 11.20141602 C21.46366646 13.6107332 21.34503749 15.1028381 21.29296875 18.10546875 C21.28330078 19.08837891 21.27363281 20.07128906 21.26367188 21.08398438 C21.23853516 22.10814453 21.21339844 23.13230469 21.1875 24.1875 C21.16719727 25.74114258 21.16719727 25.74114258 21.14648438 27.32617188 C21.11111389 29.88463699 21.06175544 32.4420578 21 35 C19.02 35 17.04 35 15 35 C14.67 28.73 14.34 22.46 14 16 C12.02 16 10.04 16 8 16 C6.48578999 17.51421001 6.78690144 18.92472768 6.68359375 21.03515625 C6.64169922 21.84404297 6.59980469 22.65292969 6.55664062 23.48632812 C6.51732422 24.33646484 6.47800781 25.18660156 6.4375 26.0625 C6.39431641 26.91650391 6.35113281 27.77050781 6.30664062 28.65039062 C6.20023298 30.76672037 6.09958269 32.88333813 6 35 C4.02 35 2.04 35 0 35 C0 23.45 0 11.9 0 0 Z " fill="#2898A4" transform="translate(178,132)"/>
<path d="M0 0 C2.31 0 4.62 0 7 0 C7 1.98 7 3.96 7 6 C8.65 6 10.3 6 12 6 C12 7.98 12 9.96 12 12 C10.35 12 8.7 12 7 12 C7 16.62 7 21.24 7 26 C8.98 26 10.96 26 13 26 C13 27.98 13 29.96 13 32 C5.82339181 32.60818713 5.82339181 32.60818713 2.25 29.96875 C-0.5309988 26.29937659 -0.58652779 23.59302374 -0.3125 19.1875 C-0.28994141 18.49462891 -0.26738281 17.80175781 -0.24414062 17.08789062 C-0.18562661 15.39098427 -0.0959548 13.69520139 0 12 C-0.99 12 -1.98 12 -3 12 C-3 10.02 -3 8.04 -3 6 C-2.01 6 -1.02 6 0 6 C0 4.02 0 2.04 0 0 Z " fill="#329CA8" transform="translate(31,135)"/>
<path d="M0 0 C1.98 0 3.96 0 6 0 C6 1.98 6 3.96 6 6 C6.804375 5.979375 7.60875 5.95875 8.4375 5.9375 C11 6 11 6 12 7 C12.04063832 8.66617115 12.042721 10.33388095 12 12 C10.02 12 8.04 12 6 12 C6.33 16.29 6.66 20.58 7 25 C8.65 25.33 10.3 25.66 12 26 C12 27.98 12 29.96 12 32 C4.72727273 32.48484848 4.72727273 32.48484848 1.75 30.5 C-0.69466761 27.00761771 -0.43798423 23.84227203 -0.25 19.75 C-0.23195313 19.00492188 -0.21390625 18.25984375 -0.1953125 17.4921875 C-0.14835649 15.66090299 -0.07661652 13.83028351 0 12 C-1.32 12 -2.64 12 -4 12 C-4 10.02 -4 8.04 -4 6 C-2.68 6 -1.36 6 0 6 C0 4.02 0 2.04 0 0 Z " fill="#2F99A4" transform="translate(116,135)"/>
<path d="M0 0 C1.60294922 0.06767578 1.60294922 0.06767578 3.23828125 0.13671875 C4.04652344 0.19472656 4.85476562 0.25273437 5.6875 0.3125 C5.6875 2.2925 5.6875 4.2725 5.6875 6.3125 C2.3875 6.6425 -0.9125 6.9725 -4.3125 7.3125 C-4.3125 11.2725 -4.3125 15.2325 -4.3125 19.3125 C-1.0125 19.6425 2.2875 19.9725 5.6875 20.3125 C5.6875 22.2925 5.6875 24.2725 5.6875 26.3125 C3.60531638 26.42082169 1.52150871 26.49823541 -0.5625 26.5625 C-2.30273438 26.63210937 -2.30273438 26.63210937 -4.078125 26.703125 C-7.3125 26.3125 -7.3125 26.3125 -9.69921875 24.82421875 C-11.98273381 21.2690125 -11.93438689 17.96570887 -11.875 13.875 C-11.89884766 13.12412109 -11.92269531 12.37324219 -11.94726562 11.59960938 C-11.93648955 7.51547544 -11.59984034 5.71729333 -9.171875 2.296875 C-5.77445925 -0.0608944 -4.08419831 -0.2244065 0 0 Z " fill="#2999A4" transform="translate(168.3125,140.6875)"/>
<path d="M0 0 C0.79019531 0.02707031 1.58039063 0.05414063 2.39453125 0.08203125 C3.28205078 0.13423828 3.28205078 0.13423828 4.1875 0.1875 C4.1875 0.8475 4.1875 1.5075 4.1875 2.1875 C1.5475 2.8475 -1.0925 3.5075 -3.8125 4.1875 C-3.4825 8.8075 -3.1525 13.4275 -2.8125 18.1875 C1.4775 18.5175 5.7675 18.8475 10.1875 19.1875 C10.1875 20.8375 10.1875 22.4875 10.1875 24.1875 C7.78975255 24.32322155 5.39974755 24.42186868 3 24.5 C1.98969727 24.5628418 1.98969727 24.5628418 0.95898438 24.62695312 C-2.76790645 24.7178529 -4.66463258 24.28836321 -7.76171875 22.17578125 C-10.32655672 18.43844592 -10.55726967 15.44606975 -10.4375 11.0625 C-10.46650391 9.98935547 -10.46650391 9.98935547 -10.49609375 8.89453125 C-10.4765625 6.8046875 -10.4765625 6.8046875 -9.8125 3.1875 C-6.67191307 0.40865606 -4.12390483 -0.18465246 0 0 Z " fill="#2497A4" transform="translate(141.8125,142.8125)"/>
<path d="M0 0 C0 0.66 0 1.32 0 2 C0.66 2 1.32 2 2 2 C2.33 3.32 2.66 4.64 3 6 C3.99 6 4.98 6 6 6 C6.04898438 7.12019531 6.09796875 8.24039063 6.1484375 9.39453125 C6.22347856 10.86721203 6.29902582 12.33986707 6.375 13.8125 C6.4059375 14.55048828 6.436875 15.28847656 6.46875 16.04882812 C6.67346148 19.81893115 6.86433827 21.79650741 9 25 C8.34 25.33 7.68 25.66 7 26 C4.32072659 21.98108988 4.84398752 19.75838077 5 15 C4.01 15.66 3.02 16.32 2 17 C-0.48046875 17.4140625 -0.48046875 17.4140625 -3.1875 17.625 C-4.08855469 17.69976562 -4.98960937 17.77453125 -5.91796875 17.8515625 C-6.60503906 17.90054688 -7.29210937 17.94953125 -8 18 C-5.03 18.33 -2.06 18.66 1 19 C1 19.66 1 20.32 1 21 C-3.29 21 -7.58 21 -12 21 C-12.33 19.35 -12.66 17.7 -13 16 C-8.38 16 -3.76 16 1 16 C0.87625 13.1228125 0.87625 13.1228125 0.75 10.1875 C0.70359375 9.10855469 0.6571875 8.02960938 0.609375 6.91796875 C0.25256509 3.94765457 0.25256509 3.94765457 -1.73828125 2.140625 C-5.71120101 0.13701089 -9.66641971 0.33491094 -14 1 C-17.08691577 2.79517723 -17.08691577 2.79517723 -19 5 C-18.125 0.125 -18.125 0.125 -17 -1 C-15.0915565 -1.289779 -13.17186365 -1.50703232 -11.25 -1.6875 C-10.20328125 -1.79449219 -9.1565625 -1.90148437 -8.078125 -2.01171875 C-4.86424134 -1.99948315 -2.86989487 -1.38711585 0 0 Z " fill="#E2FBFD" transform="translate(151,141)"/>
<path d="M0 0 C0.103125 0.763125 0.20625 1.52625 0.3125 2.3125 C0.74994971 5.00577123 0.74994971 5.00577123 2.45629883 6.39868164 C4.31122236 8.32283844 4.72590623 9.73430997 5.38671875 12.30859375 C5.60263672 13.13810547 5.81855469 13.96761719 6.04101562 14.82226562 C6.36102539 16.11680664 6.36102539 16.11680664 6.6875 17.4375 C6.91244141 18.29666016 7.13738281 19.15582031 7.36914062 20.04101562 C8.35043542 23.88566303 9 26.99137692 9 31 C7.02 31 5.04 31 3 31 C2.34 29.02 1.68 27.04 1 25 C-2.3 24.67 -5.6 24.34 -9 24 C-9 23.67 -9 23.34 -9 23 C-5.37 23 -1.74 23 2 23 C2.66 24.98 3.32 26.96 4 29 C4.99 29 5.98 29 7 29 C6.00956295 24.16371695 5.04301154 19.52381127 3 15 C2.01 15.495 2.01 15.495 1 16 C-3.07877462 9.10284464 -3.07877462 9.10284464 -2.75 4.5 C-2.5025 3.675 -2.255 2.85 -2 2 C-3.32 2 -4.64 2 -6 2 C-5.938125 3.794375 -5.938125 3.794375 -5.875 5.625 C-5.86148292 9.42329953 -6.57990247 12.44975618 -8 16 C-8.66 16 -9.32 16 -10 16 C-9.45033703 10.77820176 -8.7243411 5.97015965 -7 1 C-4.53721199 -0.231394 -2.7204945 -0.07159196 0 0 Z " fill="#1C9AA6" transform="translate(17,136)"/>
<path d="M0 0 C2 2 2 2 3 5 C3.66 3.68 4.32 2.36 5 1 C5.06058594 2.13179687 5.12117188 3.26359375 5.18359375 4.4296875 C5.26799917 5.91147145 5.35264717 7.3932416 5.4375 8.875 C5.47681641 9.62136719 5.51613281 10.36773437 5.55664062 11.13671875 C5.71573624 15.19986864 5.71573624 15.19986864 7 19 C6.01 18.67 5.02 18.34 4 18 C3.67 17.34 3.34 16.68 3 16 C2.67 17.98 2.34 19.96 2 22 C-0.97 22 -3.94 22 -7 22 C-7.33 16.39 -7.66 10.78 -8 5 C-9.32 4.34 -10.64 3.68 -12 3 C-12.33 7.62 -12.66 12.24 -13 17 C-13.33 17 -13.66 17 -14 17 C-14.02685095 14.52076199 -14.04676547 12.0418116 -14.0625 9.5625 C-14.07506836 8.50192383 -14.07506836 8.50192383 -14.08789062 7.41992188 C-14.09653588 5.61306441 -14.05220011 3.80612397 -14 2 C-13 1 -13 1 -10 0.875 C-7 1 -7 1 -6 2 C-5.91348389 3.41570123 -5.89295096 4.835595 -5.90234375 6.25390625 C-5.90556641 7.10791016 -5.90878906 7.96191406 -5.91210938 8.84179688 C-5.92048828 9.73962891 -5.92886719 10.63746094 -5.9375 11.5625 C-5.94201172 12.46419922 -5.94652344 13.36589844 -5.95117188 14.29492188 C-5.96299775 16.53001314 -5.9794778 18.76497437 -6 21 C-4.02 21 -2.04 21 0 21 C0 14.07 0 7.14 0 0 Z " fill="#E6FDFE" transform="translate(83,146)"/>
<path d="M0 0 C2.05078125 0.03255208 4.1015625 0.06510417 6.15234375 0.09765625 C6.17920313 2.24342262 6.19867463 4.3892827 6.21484375 6.53515625 C6.22644531 7.73011719 6.23804687 8.92507812 6.25 10.15625 C6.15234375 13.09765625 6.15234375 13.09765625 5.15234375 14.09765625 C1.65234375 14.22265625 1.65234375 14.22265625 -1.84765625 14.09765625 C-2.84765625 13.09765625 -2.84765625 13.09765625 -2.98046875 10.41015625 C-2.97789063 9.31703125 -2.9753125 8.22390625 -2.97265625 7.09765625 C-2.97523437 6.00453125 -2.9778125 4.91140625 -2.98046875 3.78515625 C-2.80072704 0.14802997 -2.80072704 0.14802997 0 0 Z " fill="#F5FEFD" transform="translate(96.84765625,146.90234375)"/>
<path d="M0 0 C0.66 0.33 1.32 0.66 2 1 C2.33 1.99 2.66 2.98 3 4 C5.97 4 8.94 4 12 4 C12 4.33 12 4.66 12 5 C9.36 5.33 6.72 5.66 4 6 C4 9.96 4 13.92 4 18 C6.64 18 9.28 18 12 18 C12 18.66 12 19.32 12 20 C10.52093108 20.02689216 9.04172517 20.04634621 7.5625 20.0625 C6.32693359 20.07990234 6.32693359 20.07990234 5.06640625 20.09765625 C3 20 3 20 2 19 C1.67553663 15.89957227 1.48665559 12.7979275 1.28125 9.6875 C1.29392201 7.08403248 1.29392201 7.08403248 0 6 C-1.97074537 9.94149075 -1.44435346 14.70246724 -1 19 C0.33822159 21.84074462 0.33822159 21.84074462 3 23 C6.6675213 23.33417929 6.6675213 23.33417929 10 23 C9.67 23.66 9.34 24.32 9 25 C1.73075084 25.48461661 1.73075084 25.48461661 -1.23828125 23.515625 C-3.72616386 19.96308309 -3.54736382 16.67482532 -3.4375 12.5 C-3.44458984 11.74074219 -3.45167969 10.98148438 -3.45898438 10.19921875 C-3.40983688 5.88180034 -3.11901001 3.11073677 0 0 Z " fill="#3A9CA9" transform="translate(91,142)"/>
<path d="M0 0 C0.99 0 1.98 0 3 0 C3 1.32 3 2.64 3 4 C5.31 4 7.62 4 10 4 C10 5.98 10 7.96 10 10 C8.02 10 6.04 10 4 10 C4 13.63 4 17.26 4 21 C3.67 21 3.34 21 3 21 C2.67 18.36 2.34 15.72 2 13 C1.34 13.66 0.68 14.32 0 15 C-1.33257403 4.44191344 -1.33257403 4.44191344 0 0 Z " fill="#2098A9" transform="translate(33,137)"/>
<path d="M0 0 C-0.66 2.31 -1.32 4.62 -2 7 C-3.32 7.33 -4.64 7.66 -6 8 C-10 2.25 -10 2.25 -10 0 C-10.66 0 -11.32 0 -12 0 C-12.33 0.66 -12.66 1.32 -13 2 C-13.495 1.505 -13.495 1.505 -14 1 C-16.59153107 0.84003834 -19.1595202 0.74061303 -21.75390625 0.68359375 C-22.52935287 0.66281265 -23.3047995 0.64203156 -24.10374451 0.62062073 C-26.58990308 0.55504198 -29.07617045 0.49620201 -31.5625 0.4375 C-33.24415204 0.39432267 -34.92579294 0.35070864 -36.60742188 0.30664062 C-40.73816871 0.19935221 -44.86902536 0.09810868 -49 0 C-49 -0.33 -49 -0.66 -49 -1 C-43.95079658 -1.19455505 -38.90135489 -1.37287261 -33.85107422 -1.53710938 C-32.13835835 -1.59498226 -30.42577823 -1.65704866 -28.71337891 -1.72363281 C-18.89970082 -2.10218498 -9.64808016 -2.23187418 0 0 Z " fill="#5AB3C0" transform="translate(112,65)"/>
<path d="M0 0 C0.99 0 1.98 0 3 0 C3 1.65 3 3.3 3 5 C4.32 5 5.64 5 7 5 C7 9.62 7 14.24 7 19 C6.67 19 6.34 19 6 19 C5.67 15.04 5.34 11.08 5 7 C4.01 6.67 3.02 6.34 2 6 C1.67 12.6 1.34 19.2 1 26 C-5.27 26 -11.54 26 -18 26 C-18 25.01 -18 24.02 -18 23 C-17.67 23.33 -17.34 23.66 -17 24 C-11.12353969 24.46331437 -11.12353969 24.46331437 -6 22 C-6 22.99 -6 23.98 -6 25 C-4.02 25 -2.04 25 0 25 C0 16.75 0 8.5 0 0 Z " fill="#D4F7F9" transform="translate(109,142)"/>
<path d="M0 0 C12.21 0 24.42 0 37 0 C36.67 0.66 36.34 1.32 36 2 C25.44 2 14.88 2 4 2 C3.67 3.32 3.34 4.64 3 6 C0 2.25 0 2.25 0 0 Z " fill="#5AA7B0" transform="translate(83,33)"/>
<path d="M0 0 C0.99 0.33 1.98 0.66 3 1 C3 7.27 3 13.54 3 20 C1.68 20 0.36 20 -1 20 C-1.02888514 16.85418577 -1.04675923 13.70840531 -1.0625 10.5625 C-1.07087891 9.66466797 -1.07925781 8.76683594 -1.08789062 7.84179688 C-1.09111328 6.98779297 -1.09433594 6.13378906 -1.09765625 5.25390625 C-1.10551147 4.06776733 -1.10551147 4.06776733 -1.11352539 2.85766602 C-1 1 -1 1 0 0 Z " fill="#1E99A7" transform="translate(79,145)"/>
<path d="M0 0 C3.30979968 2.81332973 5.1048141 6.141943 7 10 C6.67 11.32 6.34 12.64 6 14 C-4.56 14 -15.12 14 -26 14 C-26 13.67 -26 13.34 -26 13 C-18.93111222 12.14785221 -11.9911168 11.87253545 -4.875 11.9375 C-3.44027344 11.94426758 -3.44027344 11.94426758 -1.9765625 11.95117188 C0.34902758 11.96279983 2.6744776 11.97913898 5 12 C4.6390625 11.30132812 4.278125 10.60265625 3.90625 9.8828125 C3.4421875 8.97273438 2.978125 8.06265625 2.5 7.125 C2.0359375 6.22007813 1.571875 5.31515625 1.09375 4.3828125 C0 2 0 2 0 0 Z " fill="#47A5B0" transform="translate(111,112)"/>
<path d="M0 0 C11.22 0 22.44 0 34 0 C34 0.33 34 0.66 34 1 C30.06756732 1.16783149 26.13491104 1.32836761 22.2019043 1.48217773 C20.2067109 1.56173399 18.21174989 1.64705005 16.21679688 1.73242188 C14.96318359 1.78076172 13.70957031 1.82910156 12.41796875 1.87890625 C10.68196411 1.94960327 10.68196411 1.94960327 8.91088867 2.02172852 C6 2 6 2 3 1 C3.76074843 2.62974564 4.53398433 4.25366648 5.3125 5.875 C5.74175781 6.77992187 6.17101562 7.68484375 6.61328125 8.6171875 C7.9199388 11.26449476 7.9199388 11.26449476 11 13 C11.6875 15.625 11.6875 15.625 12 18 C11.34 18.33 10.68 18.66 10 19 C8.32626249 16.21251481 6.66223733 13.41935573 5 10.625 C4.28457031 9.43390625 4.28457031 9.43390625 3.5546875 8.21875 C3.10351562 7.45820312 2.65234375 6.69765625 2.1875 5.9140625 C1.76855469 5.2123291 1.34960938 4.5105957 0.91796875 3.78759766 C0 2 0 2 0 0 Z " fill="#2696A2" transform="translate(121,96)"/>
<path d="M0 0 C2.68092691 2.68092691 2.38670257 4.39167363 2.625 8.125 C2.69976562 9.22070312 2.77453125 10.31640625 2.8515625 11.4453125 C2.92503906 12.70988281 2.92503906 12.70988281 3 14 C3.99 14.33 4.98 14.66 6 15 C6 16.32 6 17.64 6 19 C3.52251333 18.64607333 1.89393254 17.935181 -0.25 16.625 C-3.02634201 12.46048699 -2.63915205 7.86796039 -2 3 C-1.34 2.01 -0.68 1.02 0 0 Z " fill="#1A9AA8" transform="translate(91,147)"/>
<path d="M0 0 C2.31 0 4.62 0 7 0 C7 1.98 7 3.96 7 6 C6.34 6 5.68 6 5 6 C5 4.68 5 3.36 5 2 C4.01 2 3.02 2 2 2 C1.67 10.25 1.34 18.5 1 27 C0.67 27 0.34 27 0 27 C0 22.05 0 17.1 0 12 C-0.99 12 -1.98 12 -3 12 C-3 10.02 -3 8.04 -3 6 C-2.01 6 -1.02 6 0 6 C0 4.02 0 2.04 0 0 Z " fill="#4BA4AD" transform="translate(31,135)"/>
<path d="M0 0 C0.66 0 1.32 0 2 0 C2.4660742 5.12681618 1.29799239 6.63801775 -1 12 C-6.94 12 -12.88 12 -19 12 C-19 11.34 -19 10.68 -19 10 C-13.39 10.33 -7.78 10.66 -2 11 C-2 8.69 -2 6.38 -2 4 C-5.3 4 -8.6 4 -12 4 C-11.67 3.34 -11.34 2.68 -11 2 C-8.75 1.62109375 -8.75 1.62109375 -6 1.4375 C-2.69240381 1.46519462 -2.69240381 1.46519462 0 0 Z " fill="#EAFBFB" transform="translate(154,156)"/>
<path d="M0 0 C2.9375 0.1875 2.9375 0.1875 3.9375 1.1875 C4.02381874 2.53017413 4.04456473 3.87724322 4.03515625 5.22265625 C4.03193359 6.03154297 4.02871094 6.84042969 4.02539062 7.67382812 C4.01701172 8.52396484 4.00863281 9.37410156 4 10.25 C3.99548828 11.10400391 3.99097656 11.95800781 3.98632812 12.83789062 C3.97450373 14.95445663 3.95656769 17.07098685 3.9375 19.1875 C3.6075 19.1875 3.2775 19.1875 2.9375 19.1875 C2.6075 13.5775 2.2775 7.9675 1.9375 2.1875 C0.6175 2.1875 -0.7025 2.1875 -2.0625 2.1875 C-2.7225 8.1275 -3.3825 14.0675 -4.0625 20.1875 C-4.3925 20.1875 -4.7225 20.1875 -5.0625 20.1875 C-5.11629226 17.22892591 -5.15607093 14.27132279 -5.1875 11.3125 C-5.20425781 10.47074219 -5.22101563 9.62898437 -5.23828125 8.76171875 C-5.24472656 7.95605469 -5.25117188 7.15039062 -5.2578125 6.3203125 C-5.27352295 5.20487061 -5.27352295 5.20487061 -5.28955078 4.06689453 C-4.86265109 0.5332668 -3.32247616 0.20341691 0 0 Z " fill="#C1ECF0" transform="translate(189.0625,146.8125)"/>
<path d="M0 0 C4.29 0 8.58 0 13 0 C13 4.29 13 8.58 13 13 C12.34 13 11.68 13 11 13 C10.77213542 10.94921875 10.54427083 8.8984375 10.31640625 6.84765625 C10.18113386 4.98859771 10.18113386 4.98859771 9 4 C7.48530552 3.76807135 5.96245438 3.58784762 4.4375 3.4375 C3.61121094 3.35371094 2.78492187 3.26992187 1.93359375 3.18359375 C1.29550781 3.12300781 0.65742187 3.06242188 0 3 C0 2.01 0 1.02 0 0 Z " fill="#1A9BA7" transform="translate(94,143)"/>
<path d="M0 0 C0.33 0 0.66 0 1 0 C1 3.63 1 7.26 1 11 C-2.3 11.33 -5.6 11.66 -9 12 C-6.03 12.33 -3.06 12.66 0 13 C0 13.66 0 14.32 0 15 C-4.29 15 -8.58 15 -13 15 C-13.33 13.35 -13.66 11.7 -14 10 C-9.38 10 -4.76 10 0 10 C0 6.7 0 3.4 0 0 Z " fill="#C3EAED" transform="translate(152,147)"/>
<path d="M0 0 C2.33223736 3.49835604 3.15245549 6.91404733 4.125 10.9375 C4.30675781 11.65357422 4.48851563 12.36964844 4.67578125 13.10742188 C5.52085109 16.53535554 6 19.44772031 6 23 C4.02 23 2.04 23 0 23 C-0.66 21.02 -1.32 19.04 -2 17 C-5.3 16.67 -8.6 16.34 -12 16 C-12 15.67 -12 15.34 -12 15 C-8.37 15 -4.74 15 -1 15 C-0.34 16.98 0.32 18.96 1 21 C1.99 21 2.98 21 4 21 C3.69201674 19.51988629 3.378482 18.04092675 3.0625 16.5625 C2.88847656 15.73878906 2.71445312 14.91507813 2.53515625 14.06640625 C2.19247006 12.02338796 2.19247006 12.02338796 1 11 C0.76636119 9.15108054 0.58696365 7.29511969 0.4375 5.4375 C0.35371094 4.42558594 0.26992188 3.41367188 0.18359375 2.37109375 C0.12300781 1.58863281 0.06242187 0.80617187 0 0 Z " fill="#3E9AA4" transform="translate(20,144)"/>
<path d="M0 0 C2.09715785 3.14573677 2.52004559 5.01456251 3.125 8.6875 C3.29257812 9.68136719 3.46015625 10.67523438 3.6328125 11.69921875 C3.75398438 12.45847656 3.87515625 13.21773437 4 14 C1.69 14 -0.62 14 -3 14 C-2.48594831 9.03083364 -1.76615118 4.70973649 0 0 Z " fill="#CEF3F5" transform="translate(13,141)"/>
<path d="M0 0 C2.9375 0.1875 2.9375 0.1875 3.9375 1.1875 C4.02401611 2.60320123 4.04454904 4.023095 4.03515625 5.44140625 C4.03193359 6.29541016 4.02871094 7.14941406 4.02539062 8.02929688 C4.01701172 8.92712891 4.00863281 9.82496094 4 10.75 C3.99548828 11.65169922 3.99097656 12.55339844 3.98632812 13.48242188 C3.97450225 15.71751314 3.9580222 17.95247437 3.9375 20.1875 C3.6075 20.1875 3.2775 20.1875 2.9375 20.1875 C2.6075 14.9075 2.2775 9.6275 1.9375 4.1875 C0.6175 3.8575 -0.7025 3.5275 -2.0625 3.1875 C-3.58356634 6.22963267 -3.43679338 9.46797572 -3.625 12.8125 C-3.66818359 13.51890625 -3.71136719 14.2253125 -3.75585938 14.953125 C-3.86194751 16.69768537 -3.96272889 18.44256697 -4.0625 20.1875 C-4.3925 20.1875 -4.7225 20.1875 -5.0625 20.1875 C-5.11629226 17.22892591 -5.15607093 14.27132279 -5.1875 11.3125 C-5.20425781 10.47074219 -5.22101562 9.62898437 -5.23828125 8.76171875 C-5.24472656 7.95605469 -5.25117187 7.15039062 -5.2578125 6.3203125 C-5.27352295 5.20487061 -5.27352295 5.20487061 -5.28955078 4.06689453 C-4.86265109 0.5332668 -3.32247616 0.20341691 0 0 Z " fill="#ABDEE3" transform="translate(59.0625,146.8125)"/>
<path d="M0 0 C2.64 0.33 5.28 0.66 8 1 C8 2.98 8 4.96 8 7 C0.49230769 7.36923077 0.49230769 7.36923077 -2 5.5 C-2.33 5.005 -2.66 4.51 -3 4 C-2.01 3.34 -1.02 2.68 0 2 C0 1.34 0 0.68 0 0 Z " fill="#3397A3" transform="translate(120,160)"/>
<path d="M0 0 C2.62002725 2.37050084 4.35819909 4.87276017 6 8 C6 8.99 6 9.98 6 11 C-5.55 11 -17.1 11 -29 11 C-29 10.67 -29 10.34 -29 10 C-13.655 9.505 -13.655 9.505 2 9 C1.39144973 5.95724864 0.77610498 2.99354776 0 0 Z " fill="#3AA2AE" transform="translate(132,54)"/>
<path d="M0 0 C3 0.125 3 0.125 4 1.125 C4.08651611 2.54070123 4.10704904 3.960595 4.09765625 5.37890625 C4.09443359 6.23291016 4.09121094 7.08691406 4.08789062 7.96679688 C4.07951172 8.86462891 4.07113281 9.76246094 4.0625 10.6875 C4.05798828 11.58919922 4.05347656 12.49089844 4.04882812 13.41992188 C4.03700225 15.65501314 4.0205222 17.88997437 4 20.125 C3.67 20.125 3.34 20.125 3 20.125 C2.96132812 18.42730469 2.96132812 18.42730469 2.921875 16.6953125 C2.86560374 15.21350257 2.80825618 13.73173323 2.75 12.25 C2.73582031 11.50363281 2.72164063 10.75726563 2.70703125 9.98828125 C2.64013659 7.55361619 2.64013659 7.55361619 2 4.125 C0.68 3.465 -0.64 2.805 -2 2.125 C-2.33 6.745 -2.66 11.365 -3 16.125 C-3.33 16.125 -3.66 16.125 -4 16.125 C-4.02685095 13.64576199 -4.04676547 11.1668116 -4.0625 8.6875 C-4.07506836 7.62692383 -4.07506836 7.62692383 -4.08789062 6.54492188 C-4.09653588 4.73806441 -4.05220011 2.93112397 -4 1.125 C-3 0.125 -3 0.125 0 0 Z " fill="#C1EFF2" transform="translate(73,146.875)"/>
<path d="M0 0 C1.65 0.33 3.3 0.66 5 1 C4.04600922 2.79398267 3.08665974 4.58511655 2.125 6.375 C1.59132813 7.37273437 1.05765625 8.37046875 0.5078125 9.3984375 C-1 12 -1 12 -3 14 C-2.67 12.02 -2.34 10.04 -2 8 C-2.66 8 -3.32 8 -4 8 C-3.40072174 4.64404172 -2.15377564 2.62198774 0 0 Z " fill="#51AEBD" transform="translate(86,80)"/>
<path d="M0 0 C3.96 0 7.92 0 12 0 C12 1.98 12 3.96 12 6 C8.7 6.33 5.4 6.66 2 7 C1.67 10.96 1.34 14.92 1 19 C0.67 19 0.34 19 0 19 C-0.36093104 16.85529407 -0.71357589 14.70919203 -1.0625 12.5625 C-1.25972656 11.36753906 -1.45695313 10.17257813 -1.66015625 8.94140625 C-1.77230469 7.97074219 -1.88445312 7.00007812 -2 6 C-1 5 -1 5 1.72265625 4.90234375 C3.37587891 4.91974609 3.37587891 4.91974609 5.0625 4.9375 C6.71958984 4.95103516 6.71958984 4.95103516 8.41015625 4.96484375 C9.26480469 4.97644531 10.11945313 4.98804688 11 5 C11 3.68 11 2.36 11 1 C7.37 1 3.74 1 0 1 C0 0.67 0 0.34 0 0 Z " fill="#50A4AC" transform="translate(162,141)"/>
<path d="M0 0 C0.66 0 1.32 0 2 0 C2.33 2.31 2.66 4.62 3 7 C6.63 7.66 10.26 8.32 14 9 C13.67 9.99 13.34 10.98 13 12 C12.67 11.67 12.34 11.34 12 11 C10.35659133 10.90145345 8.7088539 10.87027589 7.0625 10.875 C6.16660156 10.87242187 5.27070313 10.86984375 4.34765625 10.8671875 C1.97844445 10.84578587 1.97844445 10.84578587 0 12 C0 8.04 0 4.08 0 0 Z " fill="#C4E6EB" transform="translate(184,132)"/>
<path d="M0 0 C1.134375 0.020625 2.26875 0.04125 3.4375 0.0625 C3.4375 2.0425 3.4375 4.0225 3.4375 6.0625 C0.7975 6.0625 -1.8425 6.0625 -4.5625 6.0625 C-4.605221 4.39638095 -4.60313832 2.72867115 -4.5625 1.0625 C-3.5625 0.0625 -3.5625 0.0625 0 0 Z " fill="#D9F6FA" transform="translate(142.5625,146.9375)"/>
<path d="M0 0 C3.78517206 0.25662183 5.01775858 0.68704824 7.6875 3.25 C6.6875 5.25 6.6875 5.25 5 5.9375 C2.06269398 6.33443325 -0.42409734 5.84080963 -3.3125 5.25 C-3.875 3.3125 -3.875 3.3125 -4.3125 1.25 C-3.3125 0.25 -3.3125 0.25 0 0 Z " fill="#38A0AA" transform="translate(74.3125,140.75)"/>
<path d="M0 0 C2.97 0 5.94 0 9 0 C9.66 2.31 10.32 4.62 11 7 C10.01 6.67 9.02 6.34 8 6 C8 4.35 8 2.7 8 1 C5.69 1.66 3.38 2.32 1 3 C0.34 6.3 -0.32 9.6 -1 13 C-1.66 12.34 -2.32 11.68 -3 11 C-2.67811457 6.65454676 -1.96809657 3.93619314 0 0 Z " fill="#3C9EA6" transform="translate(9,135)"/>
<path d="M0 0 C1.37478516 0.01740234 1.37478516 0.01740234 2.77734375 0.03515625 C3.69644531 0.04417969 4.61554688 0.05320313 5.5625 0.0625 C6.27277344 0.07410156 6.98304688 0.08570313 7.71484375 0.09765625 C7.71484375 0.42765625 7.71484375 0.75765625 7.71484375 1.09765625 C5.07484375 1.42765625 2.43484375 1.75765625 -0.28515625 2.09765625 C-0.28515625 5.39765625 -0.28515625 8.69765625 -0.28515625 12.09765625 C2.02484375 12.42765625 4.33484375 12.75765625 6.71484375 13.09765625 C6.71484375 13.42765625 6.71484375 13.75765625 6.71484375 14.09765625 C5.23577483 14.12454841 3.75656892 14.14400246 2.27734375 14.16015625 C1.04177734 14.17755859 1.04177734 14.17755859 -0.21875 14.1953125 C-2.28515625 14.09765625 -2.28515625 14.09765625 -3.28515625 13.09765625 C-3.38389441 11.09966053 -3.41487424 9.09808467 -3.41015625 7.09765625 C-3.41273438 6.00453125 -3.4153125 4.91140625 -3.41796875 3.78515625 C-3.23774943 0.13836536 -3.23774943 0.13836536 0 0 Z " fill="#D5F8FB" transform="translate(166.28515625,146.90234375)"/>
<path d="M0 0 C1.98 0.495 1.98 0.495 4 1 C4 3.97 4 6.94 4 10 C2.35 10 0.7 10 -1 10 C-1.125 2.25 -1.125 2.25 0 0 Z " fill="#219CAA" transform="translate(147,146)"/>
<path d="M0 0 C0.33 1.32 0.66 2.64 1 4 C0.34 4 -0.32 4 -1 4 C-0.67 5.32 -0.34 6.64 0 8 C-1.32 8.33 -2.64 8.66 -4 9 C-3.7525 9.5775 -3.505 10.155 -3.25 10.75 C-3.1675 11.4925 -3.085 12.235 -3 13 C-4.9375 15.25 -4.9375 15.25 -7 17 C-7.99 16.67 -8.98 16.34 -10 16 C-6.7 10.72 -3.4 5.44 0 0 Z " fill="#329BA5" transform="translate(95,104)"/>
<path d="M0 0 C1.98 0.495 1.98 0.495 4 1 C6 7.625 6 7.625 6 11 C5.01 11 4.02 11 3 11 C1.66666667 8.33333333 0.33333333 5.66666667 -1 3 C-0.34 3 0.32 3 1 3 C0.67 2.01 0.34 1.02 0 0 Z " fill="#1B9AA8" transform="translate(18,154)"/>
<path d="M0 0 C0.99 0 1.98 0 3 0 C3 1.32 3 2.64 3 4 C3.66 4 4.32 4 5 4 C5 4.66 5 5.32 5 6 C5.99 6 6.98 6 8 6 C7.67 6.99 7.34 7.98 7 9 C5.35 9 3.7 9 2 9 C2 8.01 2 7.02 2 6 C1.01 6.33 0.02 6.66 -1 7 C-0.67 4.69 -0.34 2.38 0 0 Z " fill="#199AA9" transform="translate(33,137)"/>
<path d="M0 0 C0.66 0 1.32 0 2 0 C2 3.96 2 7.92 2 12 C1.01 12 0.02 12 -1 12 C-2.17353189 8.47940432 -2.20146402 5.693507 -2 2 C-1.34 1.34 -0.68 0.68 0 0 Z " fill="#199BA7" transform="translate(119,151)"/>
<path d="M0 0 C2.05078125 0.03255208 4.1015625 0.06510417 6.15234375 0.09765625 C6.15234375 4.38765625 6.15234375 8.67765625 6.15234375 13.09765625 C5.82234375 13.09765625 5.49234375 13.09765625 5.15234375 13.09765625 C5.15234375 9.46765625 5.15234375 5.83765625 5.15234375 2.09765625 C3.17234375 2.42765625 1.19234375 2.75765625 -0.84765625 3.09765625 C-1.17765625 6.39765625 -1.50765625 9.69765625 -1.84765625 13.09765625 C-2.17765625 13.09765625 -2.50765625 13.09765625 -2.84765625 13.09765625 C-2.87452178 11.11856227 -2.89399 9.13936654 -2.91015625 7.16015625 C-2.92175781 6.05800781 -2.93335937 4.95585937 -2.9453125 3.8203125 C-2.81361949 0.14871139 -2.81361949 0.14871139 0 0 Z " fill="#B7E7ED" transform="translate(96.84765625,146.90234375)"/>
<path d="M0 0 C1.32 0 2.64 0 4 0 C4.33 1.65 4.66 3.3 5 5 C6.65 5 8.3 5 10 5 C8.68 5.33 7.36 5.66 6 6 C6 6.66 6 7.32 6 8 C1.125 7.125 1.125 7.125 0 6 C-0.04080783 4.00041636 -0.04254356 1.99954746 0 0 Z " fill="#33A2AF" transform="translate(117,136)"/>
<path d="M0 0 C3.96 0 7.92 0 12 0 C12 1.98 12 3.96 12 6 C11.67 6 11.34 6 11 6 C11 4.35 11 2.7 11 1 C10.649375 1.495 10.29875 1.99 9.9375 2.5 C7.05625711 4.73063966 4.52990974 4.19980621 1 4 C0.67 2.68 0.34 1.36 0 0 Z " fill="#44A9B1" transform="translate(162,161)"/>
<path d="M0 0 C0.33 0 0.66 0 1 0 C1.02578125 0.89203125 1.0515625 1.7840625 1.078125 2.703125 C1.13484375 3.87359375 1.1915625 5.0440625 1.25 6.25 C1.29640625 7.41015625 1.3428125 8.5703125 1.390625 9.765625 C2.0976942 13.51853073 2.94008754 14.77063521 6 17 C9.6675213 17.33417929 9.6675213 17.33417929 13 17 C12.67 17.66 12.34 18.32 12 19 C4.71375465 19.48574969 4.71375465 19.48574969 1.75 17.46875 C-0.6278793 14.1142417 -0.44389656 11.19504925 -0.25 7.25 C-0.23195313 6.55261719 -0.21390625 5.85523438 -0.1953125 5.13671875 C-0.14838554 3.42388461 -0.07664605 1.71176176 0 0 Z " fill="#4198A3" transform="translate(88,148)"/>
<path d="M0 0 C0.99 0 1.98 0 3 0 C3.25394531 0.55429688 3.50789063 1.10859375 3.76953125 1.6796875 C4.11371094 2.40414062 4.45789063 3.12859375 4.8125 3.875 C5.14894531 4.59429687 5.48539062 5.31359375 5.83203125 6.0546875 C6.99467097 8.30542806 6.99467097 8.30542806 10 10 C10.6875 12.625 10.6875 12.625 11 15 C10.01 15.495 10.01 15.495 9 16 C7.49734474 13.5224077 5.99777081 11.04304235 4.5 8.5625 C4.07074219 7.85544922 3.64148438 7.14839844 3.19921875 6.41992188 C0 1.11328125 0 1.11328125 0 0 Z " fill="#399CA5" transform="translate(122,99)"/>
<path d="M0 0 C2.64 0 5.28 0 8 0 C8 1.65 8 3.3 8 5 C6.741875 5.04125 5.48375 5.0825 4.1875 5.125 C3.47980469 5.14820313 2.77210938 5.17140625 2.04296875 5.1953125 C0 5 0 5 -3 3 C-0.36 2.67 2.28 2.34 5 2 C3.35 1.67 1.7 1.34 0 1 C0 0.67 0 0.34 0 0 Z " fill="#2D929B" transform="translate(165,162)"/>
<path d="M0 0 C1.32 0.99 2.64 1.98 4 3 C0.36576791 5.32590854 -2.77088331 5.16265833 -7 5 C-7.33 6.65 -7.66 8.3 -8 10 C-8.33 10 -8.66 10 -9 10 C-9.1875 7.125 -9.1875 7.125 -9 4 C-5.5647952 1.70986347 -4.014669 1.82157027 0 2 C0 1.34 0 0.68 0 0 Z " fill="#2D97A5" transform="translate(146,143)"/>
<path d="M0 0 C1 3 1 3 0.328125 4.9375 C-0.02765625 5.618125 -0.3834375 6.29875 -0.75 7 C-1.09546875 7.680625 -1.4409375 8.36125 -1.796875 9.0625 C-3.0089425 11.01440091 -4.31406647 12.4497163 -6 14 C-6.66 13.67 -7.32 13.34 -8 13 C-5.36 8.71 -2.72 4.42 0 0 Z " fill="#3E9CA6" transform="translate(54,79)"/>
<path d="M0 0 C3.77375512 0.52832572 5.38691346 1.86047737 8.125 4.4375 C6.805 4.7675 5.485 5.0975 4.125 5.4375 C3.795 4.4475 3.465 3.4575 3.125 2.4375 C-1.33 2.9325 -1.33 2.9325 -5.875 3.4375 C-2.875 0.4375 -2.875 0.4375 0 0 Z " fill="#47A2AD" transform="translate(60.875,140.5625)"/>
<path d="M0 0 C1.13598633 0.00483398 1.13598633 0.00483398 2.29492188 0.00976562 C3.47344727 0.02233398 3.47344727 0.02233398 4.67578125 0.03515625 C5.47306641 0.03966797 6.27035156 0.04417969 7.09179688 0.04882812 C9.05732382 0.06059775 11.0228121 0.07853277 12.98828125 0.09765625 C12.98828125 0.42765625 12.98828125 0.75765625 12.98828125 1.09765625 C11.89128906 1.1234375 10.79429688 1.14921875 9.6640625 1.17578125 C8.20959677 1.23208315 6.75517122 1.28943002 5.30078125 1.34765625 C4.57955078 1.36183594 3.85832031 1.37601563 3.11523438 1.390625 C-1.80799619 1.61543005 -4.3684903 2.50472878 -8.01171875 6.09765625 C-7.68171875 4.44765625 -7.35171875 2.79765625 -7.01171875 1.09765625 C-4.30455633 0.19526878 -2.77395107 -0.02085677 0 0 Z " fill="#E5FDFE" transform="translate(96.01171875,139.90234375)"/>
<path d="M0 0 C0.66 0 1.32 0 2 0 C2.99 1.98 3.98 3.96 5 6 C2 7 2 7 -0.1875 6.0625 C-0.785625 5.711875 -1.38375 5.36125 -2 5 C-1.34 3.35 -0.68 1.7 0 0 Z " fill="#2E99A9" transform="translate(119,34)"/>
<path d="M0 0 C0.66 0 1.32 0 2 0 C2.99 1.98 3.98 3.96 5 6 C4.05125 5.979375 3.1025 5.95875 2.125 5.9375 C-0.90666283 5.77448174 -0.90666283 5.77448174 -3 7 C-1.125 2.25 -1.125 2.25 0 0 Z " fill="#DBF6F8" transform="translate(100,65)"/>
<path d="M0 0 C2.64 0.33 5.28 0.66 8 1 C7.360625 1.28875 6.72125 1.5775 6.0625 1.875 C3.84793921 2.82823451 3.84793921 2.82823451 3 5 C0.4375 5.625 0.4375 5.625 -2 6 C-2.33 5.34 -2.66 4.68 -3 4 C-2.01 3.34 -1.02 2.68 0 2 C0 1.34 0 0.68 0 0 Z " fill="#45A6B4" transform="translate(120,160)"/>
<path d="M0 0 C0.33 0 0.66 0 1 0 C1 1.98 1 3.96 1 6 C2.32 6.33 3.64 6.66 5 7 C5 7.66 5 8.32 5 9 C3.02 9 1.04 9 -1 9 C-0.67 6.03 -0.34 3.06 0 0 Z " fill="#3B979D" transform="translate(2,158)"/>
<path d="M0 0 C1 3 1 3 0 6 C-0.66 6 -1.32 6 -2 6 C-2.33 7.65 -2.66 9.3 -3 11 C-3.99 11.33 -4.98 11.66 -6 12 C-4.43358249 7.69235185 -2.31663844 3.93828536 0 0 Z " fill="#9FCDD0" transform="translate(76,42)"/>
<path d="M0 0 C1.65 0 3.3 0 5 0 C5 1.98 5 3.96 5 6 C3.35 6 1.7 6 0 6 C0.99 4.68 1.98 3.36 3 2 C2.01 2 1.02 2 0 2 C0 1.34 0 0.68 0 0 Z " fill="#499DA7" transform="translate(38,141)"/>
<path d="M0 0 C3.3 0 6.6 0 10 0 C10.66 2.31 11.32 4.62 12 7 C10.29159719 5.36587557 9.06546953 4.13093906 8 2 C6.10466658 1.53476937 6.10466658 1.53476937 3.9375 1.375 C2.638125 1.25125 1.33875 1.1275 0 1 C0 0.67 0 0.34 0 0 Z " fill="#B8E5E9" transform="translate(8,160)"/>
<path d="M0 0 C0.66 0 1.32 0 2 0 C2 0.66 2 1.32 2 2 C2.66 2 3.32 2 4 2 C2.72553565 4.5489287 1.53636507 4.80641644 -1 6 C-1.99 6.66 -2.98 7.32 -4 8 C-2.87548273 5.0280615 -1.77706209 2.66559313 0 0 Z " fill="#349BA3" transform="translate(62,66)"/>
<path d="M0 0 C4.5220607 2.26103035 5.22520129 3.42288753 7 8 C6.67 8.99 6.34 9.98 6 11 C4.02 7.37 2.04 3.74 0 0 Z " fill="#DAF8FA" transform="translate(120,33)"/>
<path d="M0 0 C0.66 0.33 1.32 0.66 2 1 C1.19185349 2.33597652 0.37836819 3.668725 -0.4375 5 C-0.88996094 5.7425 -1.34242187 6.485 -1.80859375 7.25 C-2.20175781 7.8275 -2.59492187 8.405 -3 9 C-3.33 9 -3.66 9 -4 9 C-4.25 6.75 -4.25 6.75 -4 4 C-2 1.6875 -2 1.6875 0 0 Z " fill="#68B2BB" transform="translate(89,81)"/>
<path d="M0 0 C2.375 0.25 2.375 0.25 5 1 C6.3125 3.0625 6.3125 3.0625 7 5 C4.0625 4.1875 4.0625 4.1875 1 3 C0.67 2.01 0.34 1.02 0 0 Z " fill="#329BAA" transform="translate(122,43)"/>
<path d="M0 0 C2 3 2 3 2 5 C1.34 5 0.68 5 0 5 C-0.33 6.65 -0.66 8.3 -1 10 C-2.46726798 6.18510326 -1.43336419 3.70988378 0 0 Z " fill="#BFEEF2" transform="translate(13,141)"/>
<path d="M0 0 C1.24546405 2.49092811 0.7767578 3.41080733 0 6 C-0.66 6 -1.32 6 -2 6 C-2.33 6.99 -2.66 7.98 -3 9 C-3.99 8.34 -4.98 7.68 -6 7 C-5.071875 6.1028125 -5.071875 6.1028125 -4.125 5.1875 C-1.86323046 2.99188856 -1.86323046 2.99188856 0 0 Z " fill="#D7F5F7" transform="translate(144,118)"/>
<path d="M0 0 C0.66 0.99 1.32 1.98 2 3 C1.01 4.485 1.01 4.485 0 6 C-0.99 5.67 -1.98 5.34 -3 5 C-3.33 4.01 -3.66 3.02 -4 2 C-2.68 1.34 -1.36 0.68 0 0 Z " fill="#56AAB6" transform="translate(121,88)"/>
<path d="M0 0 C0.66 0 1.32 0 2 0 C2 2.31 2 4.62 2 7 C1.01 7 0.02 7 -1 7 C-0.67 4.69 -0.34 2.38 0 0 Z " fill="#F5FEFF" transform="translate(13,146)"/>
<path d="M0 0 C1.32 0 2.64 0 4 0 C3.6875 1.9375 3.6875 1.9375 3 4 C2.01 4.33 1.02 4.66 0 5 C0 3.35 0 1.7 0 0 Z " fill="#1E98A8" transform="translate(117,136)"/>
<path d="M0 0 C2.64 0 5.28 0 8 0 C7.67 0.99 7.34 1.98 7 3 C7 2.34 7 1.68 7 1 C5.68 1 4.36 1 3 1 C2.34 2.32 1.68 3.64 1 5 C0.67 3.35 0.34 1.7 0 0 Z " fill="#DCF7F9" transform="translate(96,96)"/>
</svg>
