<?xml version="1.0" encoding="UTF-8"?>
<svg version="1.1" xmlns="http://www.w3.org/2000/svg" width="200" height="200">
<path d="M0 0 C66 0 132 0 200 0 C200 66 200 132 200 200 C134 200 68 200 0 200 C0 134 0 68 0 0 Z " fill="#FEFEFE" transform="translate(0,0)"/>
<path d="M0 0 C3.815625 -0.061875 7.63125 -0.12375 11.5625 -0.1875 C13.34636108 -0.22846802 13.34636108 -0.22846802 15.16625977 -0.27026367 C22.09364631 -0.32449778 27.51131593 -0.03853129 32.9375 4.6875 C34.52132197 8.13464193 34.64782995 11.32441745 34 15 C32.88188191 17.5702195 31.5655583 19.65166255 30 22 C30.804375 22.61875 31.60875 23.2375 32.4375 23.875 C35 26 35 26 36 28 C36.37414872 33.61223087 36.16077934 37.14594602 33 42 C28.92007657 45.6974306 25.39556254 46.12388079 20.01953125 46.09765625 C18.97128174 46.09515869 17.92303223 46.09266113 16.84301758 46.09008789 C15.51294678 46.08098389 14.18287598 46.07187988 12.8125 46.0625 C8.584375 46.041875 4.35625 46.02125 0 46 C0 30.82 0 15.64 0 0 Z " fill="#FABA56" transform="translate(33,66)"/>
<path d="M0 0 C8.3125 2.3125 8.3125 2.3125 11.01269531 3.06469727 C16.37463087 4.55625433 21.74474094 6.01232183 27.12890625 7.421875 C29 8 29 8 30 9 C30.08851529 11.59359322 30.11525945 14.16039691 30.09765625 16.75390625 C30.0962413 17.52935287 30.09482635 18.3047995 30.09336853 19.10374451 C30.08775345 21.59003494 30.07519846 24.0762366 30.0625 26.5625 C30.05748694 28.24413933 30.0529237 29.92578006 30.04882812 31.60742188 C30.03777913 35.73831566 30.02050445 39.86914276 30 44 C25.61300799 43.44417121 21.50701709 42.68297141 17.28515625 41.37109375 C16.36871338 41.08935303 15.45227051 40.8076123 14.50805664 40.51733398 C13.37102295 40.16098877 12.23398926 39.80464355 11.0625 39.4375 C7.411875 38.303125 3.76125 37.16875 0 36 C0 24.12 0 12.24 0 0 Z " fill="#485353" transform="translate(106,75)"/>
<path d="M0 0 C0 11.55 0 23.1 0 35 C-5.78550057 37.16956271 -11.33201139 39.05512147 -17.25 40.6875 C-18.03890625 40.91244141 -18.8278125 41.13738281 -19.640625 41.36914062 C-20.40375 41.58119141 -21.166875 41.79324219 -21.953125 42.01171875 C-22.63536133 42.20209717 -23.31759766 42.39247559 -24.02050781 42.58862305 C-26 43 -26 43 -30 43 C-30 31.45 -30 19.9 -30 8 C-26.4525 6.865625 -22.905 5.73125 -19.25 4.5625 C-17.58179199 4.02798218 -17.58179199 4.02798218 -15.87988281 3.48266602 C-14.5548877 3.06005493 -14.5548877 3.06005493 -13.203125 2.62890625 C-12.30239258 2.34088135 -11.40166016 2.05285645 -10.47363281 1.75610352 C-6.71723601 0.60790366 -3.98715189 0 0 0 Z " fill="#989CA2" transform="translate(168,75)"/>
<path d="M0 0 C2.64 0 5.28 0 8 0 C8 15.18 8 30.36 8 46 C5.36 46 2.72 46 0 46 C-0.33 45.34 -0.66 44.68 -1 44 C-1.680625 44.495 -2.36125 44.99 -3.0625 45.5 C-6.81247539 47.41488105 -8.83033386 47.64701716 -13 47 C-17.60102457 44.21150026 -20.44557189 41.20107225 -22 36 C-22.3359375 32.44140625 -22.3359375 32.44140625 -22.375 28.5625 C-22.40335937 27.28503906 -22.43171875 26.00757812 -22.4609375 24.69140625 C-21.9263784 20.4104033 -20.70555618 18.31822741 -18 15 C-13.93624024 12.3497219 -10.83176399 11.38317906 -6 12 C-4.35 12.99 -2.7 13.98 -1 15 C-0.67 10.05 -0.34 5.1 0 0 Z " fill="#5D7DB7" transform="translate(94,66)"/>
<path d="M0 0 C4.13582949 2.81988374 6.18164671 6.16994012 7.75 10.875 C7.75 13.515 7.75 16.155 7.75 18.875 C1.15 18.875 -5.45 18.875 -12.25 18.875 C-11.26 21.185 -10.27 23.495 -9.25 25.875 C-6.33365871 26.1252157 -6.33365871 26.1252157 -3.25 25.875 C-2.59 24.885 -1.93 23.895 -1.25 22.875 C2.375 22.6875 2.375 22.6875 5.75 22.875 C6.5625 24.5625 6.5625 24.5625 6.75 26.875 C3.87356785 30.42823971 1.24239006 32.8766911 -3.25 33.875 C-8.32989601 34.01774088 -12.04676241 33.77102799 -16.1875 30.6875 C-21.18057185 23.87876566 -22.42823263 18.27678968 -21.25 9.875 C-19.61734147 5.66233788 -17.33291206 2.81157259 -13.9375 -0.125 C-8.96075432 -1.97681235 -4.89370803 -1.69397586 0 0 Z " fill="#F9BA55" transform="translate(21.25,79.125)"/>
<path d="M0 0 C2.64 0 5.28 0 8 0 C8.33 7.59 8.66 15.18 9 23 C10.11375 21.35 11.2275 19.7 12.375 18 C16.14225517 13.20653912 16.14225517 13.20653912 19.7578125 12.3359375 C22.24075812 12.3713071 24.55968876 12.5499426 27 13 C25.30588371 16.76837575 22.99576008 19.28071561 20.14453125 22.21875 C18.77439937 23.91532022 18.77439937 23.91532022 19.29931641 25.85668945 C20.02965527 28.09071206 20.94547101 30.00941474 22.06640625 32.07421875 C22.6706543 33.19860352 22.6706543 33.19860352 23.28710938 34.34570312 C23.70798828 35.11849609 24.12886719 35.89128906 24.5625 36.6875 C25.39890313 38.23211701 26.23363376 39.77764127 27.06640625 41.32421875 C27.43709229 42.00572998 27.80777832 42.68724121 28.18969727 43.3894043 C29 45 29 45 29 46 C25.749888 46.7959458 23.21368755 47.02715963 20 46 C16.8895563 42.24718205 13 37.05025381 13 32 C10.9291485 33.12393047 10.9291485 33.12393047 9 35 C8.30250411 37.72489473 8.30250411 37.72489473 8.25 40.6875 C8.19328125 41.68136719 8.1365625 42.67523438 8.078125 43.69921875 C8.05234375 44.45847656 8.0265625 45.21773437 8 46 C5.36 46 2.72 46 0 46 C0 30.82 0 15.64 0 0 Z " fill="#5B7BB6" transform="translate(171,66)"/>
<path d="M0 0 C1.00095703 0.26490234 2.00191406 0.52980469 3.03320312 0.80273438 C3.98775391 1.06248047 4.94230469 1.32222656 5.92578125 1.58984375 C6.79243408 1.82437256 7.65908691 2.05890137 8.55200195 2.30053711 C10.6875 3.0625 10.6875 3.0625 12.6875 5.0625 C8.70948459 6.19159751 4.72988852 7.31502445 0.75 8.4375 C-0.36697266 8.75460938 -1.48394531 9.07171875 -2.63476562 9.3984375 C-4.84479582 10.02061609 -7.05829453 10.63061035 -9.27514648 11.22802734 C-11.09409199 11.72775853 -12.90537264 12.25941559 -14.69555664 12.85400391 C-21.59149573 14.92772306 -27.20403151 12.87496646 -33.875 10.6875 C-34.97908203 10.34460938 -36.08316406 10.00171875 -37.22070312 9.6484375 C-39.92468707 8.80563731 -42.620763 7.94347851 -45.3125 7.0625 C-45.3125 6.0725 -45.3125 5.0825 -45.3125 4.0625 C-40.67172052 2.5893291 -36.02630758 1.13298552 -31.37304688 -0.30029297 C-29.59526035 -0.85005871 -27.82074013 -1.41036647 -26.046875 -1.97265625 C-25.12390625 -2.24980469 -24.2009375 -2.52695313 -23.25 -2.8125 C-22.45464844 -3.05742188 -21.65929687 -3.30234375 -20.83984375 -3.5546875 C-13.89489562 -4.60662709 -6.65430844 -1.82196101 0 0 Z " fill="#D6D9DC" transform="translate(152.3125,68.9375)"/>
<path d="M0 0 C3.815625 -0.061875 7.63125 -0.12375 11.5625 -0.1875 C13.34636108 -0.22846802 13.34636108 -0.22846802 15.16625977 -0.27026367 C22.09364631 -0.32449778 27.51131593 -0.03853129 32.9375 4.6875 C34.58350987 8.26999206 34.31676068 11.07216756 34 15 C33.34 15.66 32.68 16.32 32 17 C32 13.7 32 10.4 32 7 C31.34 7 30.68 7 30 7 C29.67 7.66 29.34 8.32 29 9 C28.67 8.34 28.34 7.68 28 7 C27.97421875 7.62648438 27.9484375 8.25296875 27.921875 8.8984375 C27.86515625 9.71570313 27.8084375 10.53296875 27.75 11.375 C27.68039063 12.59316406 27.68039063 12.59316406 27.609375 13.8359375 C27 16 27 16 25.46875 17.28125 C21.9055984 18.31862325 18.42333342 18.20936985 14.75 18.125 C14.00492188 18.11597656 13.25984375 18.10695313 12.4921875 18.09765625 C10.66131941 18.07418358 8.83061762 18.03831525 7 18 C6.87625 16.8553125 6.87625 16.8553125 6.75 15.6875 C6.1480261 12.47635534 6.1480261 12.47635534 2 10 C1.67 21.55 1.34 33.1 1 45 C9.25 45 17.5 45 26 45 C26 45.33 26 45.66 26 46 C17.42 46 8.84 46 0 46 C0 30.82 0 15.64 0 0 Z " fill="#F6BB5D" transform="translate(33,66)"/>
<path d="M0 0 C4.72476739 1.48838826 8.05010859 4.88305985 10.5703125 9.046875 C11.34490751 12.66165173 11.25806773 15.97684557 11.1328125 19.671875 C5.26471743 19.14793794 0.58407509 17.91078642 -4.8671875 15.671875 C-4.2071875 17.981875 -3.5471875 20.291875 -2.8671875 22.671875 C-0.5571875 23.001875 1.7528125 23.331875 4.1328125 23.671875 C4.1328125 23.011875 4.1328125 22.351875 4.1328125 21.671875 C6.30155502 22.17791492 8.13248877 22.67171313 10.1328125 23.671875 C9.7578125 26.109375 9.7578125 26.109375 9.1328125 28.671875 C5.91829868 30.27913191 2.61948174 30.14585424 -0.8671875 29.671875 C-5.97225881 26.97485619 -8.78678688 24.17385537 -11.0546875 18.921875 C-12.38669157 13.59385873 -12.5609054 9.45572104 -10.5546875 4.296875 C-7.65408012 -0.21518092 -5.18990307 -0.80433922 0 0 Z " fill="#F3F6F6" transform="translate(120.8671875,82.328125)"/>
<path d="M0 0 C2.4375 2 2.4375 2 4 4 C1.94766315 6.2477975 0.99332739 7.0022242 -2 8 C-2.33 7.67 -2.66 7.34 -3 7 C-4.99958364 6.95919217 -7.00045254 6.95745644 -9 7 C-9.66 8.32 -10.32 9.64 -11 11 C-10.18015625 10.95359375 -9.3603125 10.9071875 -8.515625 10.859375 C-7.43796875 10.82328125 -6.3603125 10.7871875 -5.25 10.75 C-3.64898437 10.68039063 -3.64898437 10.68039063 -2.015625 10.609375 C1 11 1 11 3.38671875 12.8046875 C5 15 5 15 5.0625 18.375 C3.56696496 23.47741366 1.37677576 26.58678198 -3.3125 29.375 C-7.13309247 30.26350988 -10.05913495 30.37532048 -14 30 C-16.5 28 -16.5 28 -18 26 C-17.505 24.515 -17.505 24.515 -17 23 C-15.02 22.67 -13.04 22.34 -11 22 C-11 22.66 -11 23.32 -11 24 C-7.535 23.505 -7.535 23.505 -4 23 C-3.34 21.35 -2.68 19.7 -2 18 C-2.91523438 18.02320312 -3.83046875 18.04640625 -4.7734375 18.0703125 C-6.55621094 18.09738281 -6.55621094 18.09738281 -8.375 18.125 C-9.55835938 18.14820312 -10.74171875 18.17140625 -11.9609375 18.1953125 C-15 18 -15 18 -17 16 C-17.53992408 11.37207935 -17.74725214 8.37188481 -14.8125 4.625 C-10.15300135 0.27613459 -6.37151252 -0.69507409 0 0 Z " fill="#F8F9FA" transform="translate(161,81)"/>
<path d="M0 0 C2.64 0 5.28 0 8 0 C8 15.18 8 30.36 8 46 C5.69 46 3.38 46 1 46 C0.67 43.69 0.34 41.38 0 39 C-0.33 39.66 -0.66 40.32 -1 41 C-1.66 40.67 -2.32 40.34 -3 40 C-2.67 39.195625 -2.34 38.39125 -2 37.5625 C-0.37860793 31.78629074 -0.15330254 27.01090646 -2.5 21.4375 C-2.995 20.633125 -3.49 19.82875 -4 19 C-3.27876953 18.51080078 -3.27876953 18.51080078 -2.54296875 18.01171875 C-0.17627334 14.92602726 -0.42700473 11.55844033 -0.3125 7.8125 C-0.27833984 7.06291016 -0.24417969 6.31332031 -0.20898438 5.54101562 C-0.12665706 3.69453162 -0.06164719 1.84729006 0 0 Z " fill="#597AB8" transform="translate(94,66)"/>
<path d="M0 0 C0.66 0 1.32 0 2 0 C2 15.18 2 30.36 2 46 C6.186875 45.855625 10.37375 45.71125 14.6875 45.5625 C15.99936279 45.51939697 17.31122559 45.47629395 18.6628418 45.43188477 C19.70609619 45.39377686 20.74935059 45.35566895 21.82421875 45.31640625 C23.41882935 45.26141968 23.41882935 45.26141968 25.0456543 45.20532227 C27.78204532 45.0151475 30.32856732 44.6068493 33 44 C32.34 44.99 31.68 45.98 31 47 C28.06665039 47.40405273 28.06665039 47.40405273 24.34765625 47.43359375 C23.69171982 47.4388356 23.03578339 47.44407745 22.35997009 47.44947815 C20.9721722 47.45590319 19.58431988 47.45455501 18.1965332 47.44604492 C16.07339298 47.43754362 13.95295157 47.46626659 11.83007812 47.49804688 C10.48177164 47.49965924 9.13346039 47.49908068 7.78515625 47.49609375 C6.55676025 47.49794678 5.32836426 47.4997998 4.06274414 47.50170898 C1 47 1 47 -0.92407227 44.96899414 C-1.27912842 44.31922607 -1.63418457 43.66945801 -2 43 C-2.78375 43.515625 -3.5675 44.03125 -4.375 44.5625 C-5.24125 45.036875 -6.1075 45.51125 -7 46 C-7.66 45.67 -8.32 45.34 -9 45 C-8.360625 44.79375 -7.72125 44.5875 -7.0625 44.375 C-4.65074923 43.10461791 -4.65074923 43.10461791 -4.25 39.875 C-4.1675 38.92625 -4.085 37.9775 -4 37 C-6.31 36.67 -8.62 36.34 -11 36 C-11.66 37.32 -12.32 38.64 -13 40 C-15.8125 40.25 -15.8125 40.25 -19 40 C-20.875 38.25 -20.875 38.25 -22 36 C-22 34.68 -22 33.36 -22 32 C-15.4 32 -8.8 32 -2 32 C-2 29.36 -2 26.72 -2 24 C-1.34 24 -0.68 24 0 24 C0 16.08 0 8.16 0 0 Z " fill="#FEF8DC" transform="translate(31,66)"/>
<path d="M0 0 C2.9375 0.5 2.9375 0.5 4.75 1.8125 C7.65031292 5.9339973 7.3944402 10.67674235 6.9375 15.5 C5.8125 18.5 5.8125 18.5 3.9375 20.5 C1 21.5625 1 21.5625 -2.0625 21.5 C-4.94892473 19.31567858 -5.91351198 17.94696406 -7.0625 14.5 C-7.5816385 9.95541052 -7.60798767 6.52803446 -5.4375 2.4375 C-3.0625 0.5 -3.0625 0.5 0 0 Z " fill="#F5F9FC" transform="translate(87.0625,84.5)"/>
<path d="M0 0 C4.15125622 1.56651178 6.75128399 3.12721132 9 7 C9 7.66 9 8.32 9 9 C8.01 9.66 7.02 10.32 6 11 C5.34 12.65 4.68 14.3 4 16 C-0.62 16 -5.24 16 -10 16 C-10 11 -10 11 -7.8125 7.6875 C-5 5 -5 5 -2.1875 4.625 C-1.465625 4.74875 -0.74375 4.8725 0 5 C0 4.01 0 3.02 0 2 C-4.29 2.66 -8.58 3.32 -13 4 C-8.78405474 -0.21594526 -5.82341716 -0.60728373 0 0 Z " fill="#F5C068" transform="translate(18,78)"/>
<path d="M0 0 C2.24893954 -0.10823773 4.49937575 -0.18569645 6.75 -0.25 C8.00296875 -0.29640625 9.2559375 -0.3428125 10.546875 -0.390625 C14 0 14 0 16.4296875 1.85546875 C18.36593505 4.49974712 18.49393941 5.78939385 18 9 C17.01 10.485 17.01 10.485 16 12 C13.2114711 12.22107787 10.65346819 12.28107535 7.875 12.1875 C7.12089844 12.17396484 6.36679687 12.16042969 5.58984375 12.14648438 C3.72625873 12.11109985 1.86304022 12.05729167 0 12 C0 8.04 0 4.08 0 0 Z " fill="#FDFCF3" transform="translate(42,92)"/>
<path d="M0 0 C1.65 0.99 3.3 1.98 5 3 C4.67 3.99 4.34 4.98 4 6 C2.009384 13.18352729 2.65644749 18.4534246 5.84375 25.08984375 C7.21424045 27.35393101 8.78883484 28.57853668 11 30 C11 30.99 11 31.98 11 33 C9.3745692 32.85904936 7.74965949 32.71207913 6.125 32.5625 C5.22007813 32.48128906 4.31515625 32.40007812 3.3828125 32.31640625 C1 32 1 32 -1 31 C-1.02915731 26.95834861 -1.04685173 22.9167245 -1.0625 18.875 C-1.07087891 17.73289062 -1.07925781 16.59078125 -1.08789062 15.4140625 C-1.09111328 14.30546875 -1.09433594 13.196875 -1.09765625 12.0546875 C-1.10289307 11.03874512 -1.10812988 10.02280273 -1.11352539 8.97607422 C-0.99652309 5.90885274 -0.56776417 3.01366866 0 0 Z " fill="#4C5657" transform="translate(107,80)"/>
<path d="M0 0 C2.27024968 -0.08097324 4.54132075 -0.13917704 6.8125 -0.1875 C8.07707031 -0.22230469 9.34164062 -0.25710937 10.64453125 -0.29296875 C14 0 14 0 15.9609375 1.3515625 C17 3 17 3 16.8125 5.5625 C16 8 16 8 14 10 C10.7421875 10.1953125 10.7421875 10.1953125 6.875 10.125 C4.95300781 10.09792969 4.95300781 10.09792969 2.9921875 10.0703125 C1.51105469 10.03550781 1.51105469 10.03550781 0 10 C0 6.7 0 3.4 0 0 Z " fill="#FDFCF1" transform="translate(42,74)"/>
<path d="M0 0 C0.33 0 0.66 0 1 0 C1 11.55 1 23.1 1 35 C-4.13642777 34.2662246 -8.52106431 33.38901911 -13.4375 31.9375 C-14.67371094 31.57527344 -15.90992187 31.21304688 -17.18359375 30.83984375 C-18.11300781 30.56269531 -19.04242188 30.28554687 -20 30 C-19.01 29.67 -18.02 29.34 -17 29 C-17 28.34 -17 27.68 -17 27 C-13.04 27 -9.08 27 -5 27 C-4.67 25.35 -4.34 23.7 -4 22 C-2.68 22.66 -1.36 23.32 0 24 C0 16.08 0 8.16 0 0 Z " fill="#646E6E" transform="translate(135,84)"/>
<path d="M0 0 C1.32 0.33 2.64 0.66 4 1 C4 4.63 4 8.26 4 12 C2.02 12.99 2.02 12.99 0 14 C0 15.65 0 17.3 0 19 C-3.63 19 -7.26 19 -11 19 C-9 15 -9 15 -5.875 13.75 C-4.92625 13.5025 -3.9775 13.255 -3 13 C-3 12.01 -3 11.02 -3 10 C-2.34 10 -1.68 10 -1 10 C-1.01160156 9.36191406 -1.02320313 8.72382812 -1.03515625 8.06640625 C-1.04417969 7.24011719 -1.05320312 6.41382812 -1.0625 5.5625 C-1.07410156 4.73878906 -1.08570313 3.91507812 -1.09765625 3.06640625 C-1 1 -1 1 0 0 Z " fill="#FCB84D" transform="translate(61,72)"/>
<path d="M0 0 C0 2.97 0 5.94 0 9 C-0.66 9 -1.32 9 -2 9 C-2 7.35 -2 5.7 -2 4 C-4.97 4 -7.94 4 -11 4 C-11.66 5.32 -12.32 6.64 -13 8 C-15.875 8.125 -15.875 8.125 -19 8 C-21 6 -21 6 -21.125 3.375 C-21.08375 2.59125 -21.0425 1.8075 -21 1 C-17.68752012 0.83293193 -14.37501287 0.66641273 -11.0625 0.5 C-10.11697266 0.45230469 -9.17144531 0.40460938 -8.19726562 0.35546875 C-7.29814453 0.31035156 -6.39902344 0.26523438 -5.47265625 0.21875 C-4.64000244 0.17685547 -3.80734863 0.13496094 -2.94946289 0.09179688 C-1.96692123 0.04553067 -0.98363035 0 0 0 Z " fill="#FDFAF2" transform="translate(31,98)"/>
<path d="M0 0 C0.66 0.99 1.32 1.98 2 3 C2.33 2.01 2.66 1.02 3 0 C4 1 4 1 4.0625 4.5625 C4.041875 5.696875 4.02125 6.83125 4 8 C3.34 7.34 2.68 6.68 2 6 C1.319375 6.495 0.63875 6.99 -0.0625 7.5 C-3.6413106 9.32747775 -6.02991497 9.37453632 -10 9 C-12 7 -12 7 -12.125 4.375 C-12.08375 3.59125 -12.0425 2.8075 -12 2 C-11.01 1.67 -10.02 1.34 -9 1 C-9 1.66 -9 2.32 -9 3 C-8.34 3 -7.68 3 -7 3 C-6.67 2.34 -6.34 1.68 -6 1 C-2.9375 0.375 -2.9375 0.375 0 0 Z " fill="#6180BC" transform="translate(91,104)"/>
<path d="M0 0 C2.31 0 4.62 0 7 0 C7.8125 1.6875 7.8125 1.6875 8 4 C5.12356785 7.55323971 2.49239006 10.0016911 -2 11 C-11.14469453 10.85530547 -11.14469453 10.85530547 -14 8 C-10.04 8.33 -6.08 8.66 -2 9 C-2 8.01 -2 7.02 -2 6 C-3.65 5.67 -5.3 5.34 -7 5 C-7 4.67 -7 4.34 -7 4 C-5.5459375 3.566875 -5.5459375 3.566875 -4.0625 3.125 C-0.89335797 2.35785318 -0.89335797 2.35785318 0 0 Z " fill="#F6BD63" transform="translate(20,102)"/>
<path d="M0 0 C-1.49076434 3.2826932 -3.38620321 5.93077441 -5.625 8.75 C-6.25664062 9.54921875 -6.88828125 10.3484375 -7.5390625 11.171875 C-8.26222656 12.07679687 -8.26222656 12.07679687 -9 13 C-9.66 12.34 -10.32 11.68 -11 11 C-11 10.01 -11 9.02 -11 8 C-11.99 8.33 -12.98 8.66 -14 9 C-14.33 8.01 -14.66 7.02 -15 6 C-11.16243759 -0.74881664 -7.37951586 -0.77377448 0 0 Z " fill="#6681BC" transform="translate(198,79)"/>
<path d="M0 0 C0.99 0.66 1.98 1.32 3 2 C2.67 2.66 2.34 3.32 2 4 C3.2065625 4.928125 3.2065625 4.928125 4.4375 5.875 C7 8 7 8 8 10 C8.2430836 14.94269981 8.25495121 18.49009758 6 23 C4.96884721 19.73086376 5.0361016 17.13958652 5.4375 13.75 C5.53933594 12.85796875 5.64117187 11.9659375 5.74609375 11.046875 C5.82988281 10.37140625 5.91367188 9.6959375 6 9 C4.02 9 2.04 9 0 9 C0 11.97 0 14.94 0 18 C-0.99 18 -1.98 18 -3 18 C-2.67 17.67 -2.34 17.34 -2 17 C-2.25248627 13.48254713 -2.25248627 13.48254713 -3 10 C-5.9615696 8.5192152 -8.83506295 8.64685963 -12.125 8.4375 C-13.40632813 8.35371094 -14.68765625 8.26992187 -16.0078125 8.18359375 C-16.99523438 8.12300781 -17.98265625 8.06242187 -19 8 C-19 7.67 -19 7.34 -19 7 C-12.73 7 -6.46 7 0 7 C-0.33 5.02 -0.66 3.04 -1 1 C-0.67 0.67 -0.34 0.34 0 0 Z " fill="#F2BF6C" transform="translate(61,84)"/>
<path d="M0 0 C0 11.55 0 23.1 0 35 C-0.33 35 -0.66 35 -1 35 C-1.33 25.76 -1.66 16.52 -2 7 C-2.99 7.33 -3.98 7.66 -5 8 C-8.1875 6.5625 -8.1875 6.5625 -11 5 C-8.55894591 1.21636616 -8.55894591 1.21636616 -6.0625 0.25 C-4 0 -4 0 0 0 Z " fill="#A8ACB2" transform="translate(168,75)"/>
<path d="M0 0 C3.32957907 0.27746492 4.78804723 0.81096104 7.3125 3.0625 C9.62392781 7.08609656 9.45226189 9.40200411 9 14 C8.34 14.66 7.68 15.32 7 16 C7 12.7 7 9.4 7 6 C6.34 6 5.68 6 5 6 C4.67 6.66 4.34 7.32 4 8 C2.3372974 5.32521756 1.00016187 3.0004856 0 0 Z M-2 3 C-1.34 3 -0.68 3 0 3 C0 3.99 0 4.98 0 6 C0.66 6 1.32 6 2 6 C2 8.97 2 11.94 2 15 C1.34 15 0.68 15 0 15 C0.04125 14.21625 0.0825 13.4325 0.125 12.625 C0.28728734 9.83883881 0.28728734 9.83883881 -2 8 C-4.36509361 7.69940057 -6.74441881 7.50484988 -9.125 7.375 C-10.40632813 7.30023438 -11.68765625 7.22546875 -13.0078125 7.1484375 C-14.48894531 7.07496094 -14.48894531 7.07496094 -16 7 C-16 6.67 -16 6.34 -16 6 C-15.07316406 5.95101562 -14.14632812 5.90203125 -13.19140625 5.8515625 C-11.99386719 5.77679688 -10.79632813 5.70203125 -9.5625 5.625 C-8.36753906 5.55539063 -7.17257813 5.48578125 -5.94140625 5.4140625 C-4.97074219 5.27742188 -4.00007813 5.14078125 -3 5 C-2.67 4.34 -2.34 3.68 -2 3 Z " fill="#F3BD67" transform="translate(58,67)"/>
<path d="M0 0 C2.00720923 0.28674418 4.0085944 0.61866701 6 1 C6.02698189 2.62490954 6.04638757 4.24994633 6.0625 5.875 C6.07410156 6.77992187 6.08570312 7.68484375 6.09765625 8.6171875 C6 11 6 11 5 13 C2.67843403 13.40729228 0.3431213 13.74438677 -2 14 C-1.67 13.34 -1.34 12.68 -1 12 C-0.95485864 10.14638292 -0.96132958 8.29126337 -1 6.4375 C-1.03770315 4.62539219 -1.04653361 2.81190256 -1 1 C-0.67 0.67 -0.34 0.34 0 0 Z " fill="#FCB74C" transform="translate(61,92)"/>
<path d="M0 0 C5.28 1.32 10.56 2.64 16 4 C16.33 2.68 16.66 1.36 17 0 C17 1.65 17 3.3 17 5 C16.34 5 15.68 5 15 5 C15 5.99 15 6.98 15 8 C13.02 7.34 11.04 6.68 9 6 C9 6.66 9 7.32 9 8 C5.625 7.75 5.625 7.75 2 7 C0.05758039 4.4664092 0 3.21812786 0 0 Z " fill="#495354" transform="translate(116,98)"/>
<path d="M0 0 C3.5625 0.1875 3.5625 0.1875 5.5625 2.1875 C5.5625 3.8375 5.5625 5.4875 5.5625 7.1875 C1.9325 7.1875 -1.6975 7.1875 -5.4375 7.1875 C-4.40278861 0.24015211 -4.40278861 0.24015211 0 0 Z " fill="#FEF9E7" transform="translate(14.4375,84.8125)"/>
<path d="M0 0 C1.65 0.99 3.3 1.98 5 3 C4.690625 3.94875 4.38125 4.8975 4.0625 5.875 C2.72071729 10.50938425 2.36657993 15.20552041 2 20 C0 19 0 19 -0.6171875 17.2109375 C-1.60919747 11.4815738 -1.16327034 5.67094289 0 0 Z " fill="#445152" transform="translate(107,80)"/>
<path d="M0 0 C5.32487487 0.93558549 10.64608454 1.88880275 15.9375 3 C16.62714844 3.144375 17.31679687 3.28875 18.02734375 3.4375 C20 4 20 4 22.01953125 5.0234375 C24.90512052 6.4463119 27.82979633 6.63420727 31 7 C26.92317832 9.42777021 24.68851673 8.86348275 20.21484375 7.84765625 C13.42997063 6.05869213 6.71284642 4.04033151 0 2 C0 1.34 0 0.68 0 0 Z " fill="#E5EBEB" transform="translate(107,74)"/>
<path d="M0 0 C0.66 0 1.32 0 2 0 C2 1.32 2 2.64 2 4 C3.65 4 5.3 4 7 4 C7 6.31 7 8.62 7 11 C3.98968256 11.93423645 3.13349732 12.04449911 0 11 C0 7.37 0 3.74 0 0 Z " fill="#C2C3C4" transform="translate(4,120)"/>
<path d="M0 0 C4.95 0.99 9.9 1.98 15 3 C14.01 3.495 14.01 3.495 13 4 C13 4.99 13 5.98 13 7 C8.83861737 7.08159574 5.0527516 6.98248524 1 6 C0.67 4.02 0.34 2.04 0 0 Z " fill="#FAB84E" transform="translate(5,104)"/>
<path d="M0 0 C0.99 0 1.98 0 3 0 C3 0.99 3 1.98 3 3 C4.32 3.33 5.64 3.66 7 4 C7 6.64 7 9.28 7 12 C6.34 12 5.68 12 5 12 C5 10.02 5 8.04 5 6 C4.34 6 3.68 6 3 6 C3 7.98 3 9.96 3 12 C2.01 11.67 1.02 11.34 0 11 C0 7.37 0 3.74 0 0 Z " fill="#B8B8B7" transform="translate(125,120)"/>
<path d="M0 0 C2.96865509 2.54456151 4.3619751 5.48994665 6 9 C3.03 9 0.06 9 -3 9 C-3.66 7.35 -4.32 5.7 -5 4 C-4.360625 3.71125 -3.72125 3.4225 -3.0625 3.125 C-0.84793921 2.17176549 -0.84793921 2.17176549 0 0 Z " fill="#5D7BB4" transform="translate(194,103)"/>
<path d="M0 0 C3.63 0 7.26 0 11 0 C10 5 10 5 9 6 C6.66702567 6.04092937 4.33294775 6.04241723 2 6 C2 5.34 2 4.68 2 4 C1.34 3.67 0.68 3.34 0 3 C0 2.01 0 1.02 0 0 Z " fill="#A1A5AA" transform="translate(148,99)"/>
<path d="M0 0 C2.4375 0.1875 2.4375 0.1875 3.4375 1.1875 C3.625 3.625 3.625 3.625 3.4375 6.1875 C2.7775 6.8475 2.1175 7.5075 1.4375 8.1875 C-1.1875 7.8125 -1.1875 7.8125 -3.5625 7.1875 C-4.1875 4.8125 -4.1875 4.8125 -4.5625 2.1875 C-2.5625 0.1875 -2.5625 0.1875 0 0 Z " fill="#CCCCCC" transform="translate(181.5625,123.8125)"/>
<path d="M0 0 C0.78375 0.04125 1.5675 0.0825 2.375 0.125 C3 2.4375 3 2.4375 3.375 5.125 C2.385 6.61 2.385 6.61 1.375 8.125 C-0.275 7.795 -1.925 7.465 -3.625 7.125 C-4.25 4.75 -4.25 4.75 -4.625 2.125 C-2.625 0.125 -2.625 0.125 0 0 Z " fill="#BCBCBC" transform="translate(43.625,123.875)"/>
<path d="M0 0 C3.18784595 0.16347928 4.57439906 0.55972317 6.8125 2.875 C8 5 8 5 8 8 C3.545 7.01 3.545 7.01 -1 6 C-1.33 4.68 -1.66 3.36 -2 2 C-1.34 1.34 -0.68 0.68 0 0 Z " fill="#585F60" transform="translate(118,88)"/>
<path d="M0 0 C2.5 0.125 2.5 0.125 3.5 1.125 C3.6875 3.5625 3.6875 3.5625 3.5 6.125 C2.84 6.785 2.18 7.445 1.5 8.125 C-1.125 7.75 -1.125 7.75 -3.5 7.125 C-3.54254356 5.12545254 -3.54080783 3.12458364 -3.5 1.125 C-2.5 0.125 -2.5 0.125 0 0 Z " fill="#B9B9B9" transform="translate(141.5,123.875)"/>
<path d="M0 0 C-0.33 0.33 -0.66 0.66 -1 1 C-0.34 1.66 0.32 2.32 1 3 C-0.60341555 3.33692785 -2.20776555 3.66941093 -3.8125 4 C-4.70582031 4.185625 -5.59914062 4.37125 -6.51953125 4.5625 C-9 5 -9 5 -12 5 C-12.66 5.66 -13.32 6.32 -14 7 C-14.66 5.68 -15.32 4.36 -16 3 C-13.71068726 2.30364247 -11.4191243 1.61765623 -9.125 0.9375 C-8.47402344 0.73833984 -7.82304687 0.53917969 -7.15234375 0.33398438 C-2.2265625 -1.11328125 -2.2265625 -1.11328125 0 0 Z " fill="#9DA2A8" transform="translate(159,78)"/>
<path d="M0 0 C0.66 0 1.32 0 2 0 C2 1.32 2 2.64 2 4 C3.65 4.33 5.3 4.66 7 5 C7 7.31 7 9.62 7 12 C6.34 12 5.68 12 5 12 C5 10.02 5 8.04 5 6 C4.01 6 3.02 6 2 6 C2 7.65 2 9.3 2 11 C1.34 11 0.68 11 0 11 C0 7.37 0 3.74 0 0 Z " fill="#A8A8A8" transform="translate(94,120)"/>
<path d="M0 0 C1.423125 0.495 1.423125 0.495 2.875 1 C7.55447256 2.3644458 12.16823759 2.17499341 17 2 C16.34 3.32 15.68 4.64 15 6 C8.25 6.125 8.25 6.125 6 5 C6 4.34 6 3.68 6 3 C4.35 3 2.7 3 1 3 C0.67 2.01 0.34 1.02 0 0 Z " fill="#FEF9E5" transform="translate(5,110)"/>
<path d="M0 0 C1.33333333 2.66666667 2.66666667 5.33333333 4 8 C1.03 7.505 1.03 7.505 -2 7 C-2 8.65 -2 10.3 -2 12 C-5.2542015 9.16569547 -6.5206753 7.31392226 -7 3 C-6.67 3.66 -6.34 4.32 -6 5 C-4.02 4.67 -2.04 4.34 0 4 C0 2.68 0 1.36 0 0 Z " fill="#F5BE69" transform="translate(8,98)"/>
<path d="M0 0 C2.54032055 0.01796549 5.04320014 0.118343 7.57421875 0.33203125 C5.89269802 4.07223623 3.88382402 5.89337473 0.57421875 8.33203125 C0.88359375 7.73390625 1.19296875 7.13578125 1.51171875 6.51953125 C2.67631579 4.24246353 2.67631579 4.24246353 3.57421875 1.33203125 C2.25421875 1.33203125 0.93421875 1.33203125 -0.42578125 1.33203125 C-1.08578125 2.98203125 -1.74578125 4.63203125 -2.42578125 6.33203125 C-3.41578125 6.00203125 -4.40578125 5.67203125 -5.42578125 5.33203125 C-4.29102155 2.08986068 -3.53506819 0.48386602 0 0 Z " fill="#667FAF" transform="translate(190.42578125,78.66796875)"/>
<path d="M0 0 C1.2065625 0.0309375 1.2065625 0.0309375 2.4375 0.0625 C2.7675 1.3825 3.0975 2.7025 3.4375 4.0625 C1.7875 4.0625 0.1375 4.0625 -1.5625 4.0625 C-1.5625 4.7225 -1.5625 5.3825 -1.5625 6.0625 C0.0875 6.0625 1.7375 6.0625 3.4375 6.0625 C3.1075 6.7225 2.7775 7.3825 2.4375 8.0625 C-2.4375 7.1875 -2.4375 7.1875 -3.5625 6.0625 C-3.6875 3.5625 -3.6875 3.5625 -3.5625 1.0625 C-2.5625 0.0625 -2.5625 0.0625 0 0 Z " fill="#AEAEAE" transform="translate(19.5625,123.9375)"/>
<path d="M0 0 C2.31 0 4.62 0 7 0 C7 2.31 7 4.62 7 7 C6.34 7 5.68 7 5 7 C5 5.35 5 3.7 5 2 C4.01 2 3.02 2 2 2 C2 3.98 2 5.96 2 8 C1.34 8 0.68 8 0 8 C0 5.36 0 2.72 0 0 Z " fill="#A7A7A7" transform="translate(52,124)"/>
<path d="M0 0 C1.2065625 0.0309375 1.2065625 0.0309375 2.4375 0.0625 C2.7675 1.3825 3.0975 2.7025 3.4375 4.0625 C1.7875 4.0625 0.1375 4.0625 -1.5625 4.0625 C-1.5625 4.7225 -1.5625 5.3825 -1.5625 6.0625 C-0.2425 6.3925 1.0775 6.7225 2.4375 7.0625 C0.77138095 7.105221 -0.89632885 7.10313832 -2.5625 7.0625 C-3.5625 6.0625 -3.5625 6.0625 -3.6875 3.5625 C-3.51717518 0.15600356 -3.41884482 0.08338646 0 0 Z " fill="#AAAAAA" transform="translate(109.5625,123.9375)"/>
<path d="M0 0 C0.66 0 1.32 0 2 0 C2.33 0.66 2.66 1.32 3 2 C4.32 1.34 5.64 0.68 7 0 C6.01 3.3 5.02 6.6 4 10 C3.34 10 2.68 10 2 10 C1.34 6.7 0.68 3.4 0 0 Z " fill="#A4A3A4" transform="translate(28,124)"/>
<path d="M0 0 C1.99954746 -0.04254356 4.00041636 -0.04080783 6 0 C7 1 7 1 7.0625 4.0625 C7.041875 5.031875 7.02125 6.00125 7 7 C6.34 7 5.68 7 5 7 C5 5.35 5 3.7 5 2 C4.01 2 3.02 2 2 2 C2 3.65 2 5.3 2 7 C1.34 7 0.68 7 0 7 C0 4.69 0 2.38 0 0 Z " fill="#A1A1A1" transform="translate(190,124)"/>
<path d="M0 0 C0.33 0 0.66 0 1 0 C1 3.3 1 6.6 1 10 C-0.65614657 10.38218767 -2.32457024 10.71395102 -4 11 C-5 10 -5 10 -5.0625 7.4375 C-5.041875 6.633125 -5.02125 5.82875 -5 5 C-3.68 6.32 -2.36 7.64 -1 9 C-1 7.35 -1 5.7 -1 4 C-1.99 3.67 -2.98 3.34 -4 3 C-2.68 3 -1.36 3 0 3 C0 2.01 0 1.02 0 0 Z " fill="#A2A2A2" transform="translate(70,121)"/>
<path d="M0 0 C1.65 0 3.3 0 5 0 C5 0.66 5 1.32 5 2 C4.34 2 3.68 2 3 2 C3 3.98 3 5.96 3 8 C2.01 8 1.02 8 0 8 C0 5.36 0 2.72 0 0 Z " fill="#B6B6B6" transform="translate(150,124)"/>
<path d="M0 0 C0.71542969 0.14308594 1.43085937 0.28617187 2.16796875 0.43359375 C3.56982422 0.71396484 3.56982422 0.71396484 5 1 C8.99414062 1.79882812 8.99414062 1.79882812 12.98828125 2.59765625 C13.98408203 2.79681641 13.98408203 2.79681641 15 3 C12.56661348 4.53508028 11.32875493 5.03088304 8.421875 4.7578125 C7.09929687 4.44457031 7.09929687 4.44457031 5.75 4.125 C4.85796875 3.92132813 3.9659375 3.71765625 3.046875 3.5078125 C2.37140625 3.34023437 1.6959375 3.17265625 1 3 C0.67 2.01 0.34 1.02 0 0 Z " fill="#DFE4E5" transform="translate(123,78)"/>
<path d="M0 0 C0.66 0 1.32 0 2 0 C2.04898437 0.62648438 2.09796875 1.25296875 2.1484375 1.8984375 C2.22320312 2.71570313 2.29796875 3.53296875 2.375 4.375 C2.44460938 5.18710938 2.51421875 5.99921875 2.5859375 6.8359375 C2.82892588 9.20334191 2.82892588 9.20334191 5 11 C3.35 11 1.7 11 0 11 C0 7.37 0 3.74 0 0 Z " fill="#A0A0A1" transform="translate(4,120)"/>
<path d="M0 0 C0.66 0 1.32 0 2 0 C2 1.98 2 3.96 2 6 C1.34 5.67 0.68 5.34 0 5 C-2.37123246 4.76970044 -4.74741943 4.58880058 -7.125 4.4375 C-8.40632813 4.35371094 -9.68765625 4.26992187 -11.0078125 4.18359375 C-12.48894531 4.09271484 -12.48894531 4.09271484 -14 4 C-14 3.67 -14 3.34 -14 3 C-13.07316406 2.95101562 -12.14632812 2.90203125 -11.19140625 2.8515625 C-9.99386719 2.77679688 -8.79632813 2.70203125 -7.5625 2.625 C-6.36753906 2.55539063 -5.17257813 2.48578125 -3.94140625 2.4140625 C-2.97074219 2.27742188 -2.00007813 2.14078125 -1 2 C-0.67 1.34 -0.34 0.68 0 0 Z " fill="#F6C573" transform="translate(56,70)"/>
<path d="M0 0 C1.65 0 3.3 0 5 0 C4.49396008 2.16874252 4.00016187 3.99967627 3 6 C3.66 6.33 4.32 6.66 5 7 C3.35 7 1.7 7 0 7 C0.66 5.35 1.32 3.7 2 2 C1.34 2 0.68 2 0 2 C0 1.34 0 0.68 0 0 Z " fill="#A7A7A7" transform="translate(167,124)"/>
<path d="M0 0 C0.66 0 1.32 0 2 0 C2 0.66 2 1.32 2 2 C2.66 2 3.32 2 4 2 C4 2.66 4 3.32 4 4 C3.34 4 2.68 4 2 4 C2.33 5.65 2.66 7.3 3 9 C2.01 9 1.02 9 0 9 C-1.125 2.25 -1.125 2.25 0 0 Z " fill="#A4A4A5" transform="translate(85,122)"/>
<path d="M0 0 C0.66 0 1.32 0 2 0 C2 1.65 2 3.3 2 5 C2.66 5 3.32 5 4 5 C2.47058649 8.05882701 0.05780454 8.68951234 -3 10 C-3.66 9.67 -4.32 9.34 -5 9 C-4.0409375 8.7215625 -4.0409375 8.7215625 -3.0625 8.4375 C-0.57873787 7.05753944 -0.57873787 7.05753944 -0.25 3.375 C-0.1675 2.26125 -0.085 1.1475 0 0 Z " fill="#FDF1D8" transform="translate(27,102)"/>
<path d="M0 0 C1 3 1 3 -0.4375 6.1875 C-1.2109375 7.5796875 -1.2109375 7.5796875 -2 9 C-2.66 9 -3.32 9 -4 9 C-4 7.35 -4 5.7 -4 4 C-3.34 4 -2.68 4 -2 4 C-1.34 2.68 -0.68 1.36 0 0 Z " fill="#5579BF" transform="translate(78,96)"/>
<path d="M0 0 C2.31 0 4.62 0 7 0 C7.6875 1.8125 7.6875 1.8125 8 4 C6.5625 5.75 6.5625 5.75 5 7 C4.9175 6.21625 4.835 5.4325 4.75 4.625 C4.27193661 1.85250896 4.27193661 1.85250896 1.9375 0.6875 C1.298125 0.460625 0.65875 0.23375 0 0 Z " fill="#F3C06B" transform="translate(20,102)"/>
<path d="M0 0 C0.33 0 0.66 0 1 0 C1 5.28 1 10.56 1 16 C-0.32 15.01 -1.64 14.02 -3 13 C-2.01 12.67 -1.02 12.34 0 12 C0 8.04 0 4.08 0 0 Z " fill="#DAE9F9" transform="translate(93,66)"/>
<path d="M0 0 C2.5 0.125 2.5 0.125 3.5 1.125 C3.54063832 2.79117115 3.542721 4.45888095 3.5 6.125 C2.51 6.455 1.52 6.785 0.5 7.125 C0.5 5.475 0.5 3.825 0.5 2.125 C-0.82 1.795 -2.14 1.465 -3.5 1.125 C-2.5 0.125 -2.5 0.125 0 0 Z " fill="#A3A3A3" transform="translate(181.5,123.875)"/>
<path d="M0 0 C2.0625 0.4375 2.0625 0.4375 4 1 C4 2.65 4 4.3 4 6 C2.33333333 6 0.66666667 6 -1 6 C-1.042721 4.33388095 -1.04063832 2.66617115 -1 1 C-0.67 0.67 -0.34 0.34 0 0 Z " fill="#D4D4D4" transform="translate(65,124)"/>
<path d="M0 0 C0.66 0.33 1.32 0.66 2 1 C2.33 1.99 2.66 2.98 3 4 C0.69 4.33 -1.62 4.66 -4 5 C-3.6875 3.0625 -3.6875 3.0625 -3 1 C-2.01 0.67 -1.02 0.34 0 0 Z " fill="#5B7BC1" transform="translate(86,78)"/>
<path d="M0 0 C0.33 0 0.66 0 1 0 C1 1.65 1 3.3 1 5 C0.34 5 -0.32 5 -1 5 C-1 5.99 -1 6.98 -1 8 C-2.32 7.34 -3.64 6.68 -5 6 C-4.67 5.01 -4.34 4.02 -4 3 C-2.02 3.495 -2.02 3.495 0 4 C0 2.68 0 1.36 0 0 Z " fill="#5E6565" transform="translate(132,98)"/>
<path d="M0 0 C2.475 0.495 2.475 0.495 5 1 C5 1.99 5 2.98 5 4 C4.34 4 3.68 4 3 4 C2.67 4.99 2.34 5.98 2 7 C0.5393715 4.35261084 0 3.10551666 0 0 Z " fill="#576061" transform="translate(116,98)"/>
<path d="M0 0 C2.97 0.33 5.94 0.66 9 1 C9 1.33 9 1.66 9 2 C7.02 2 5.04 2 3 2 C2.67 2.66 2.34 3.32 2 4 C0.35 3.67 -1.3 3.34 -3 3 C-2.01 2.67 -1.02 2.34 0 2 C0 1.34 0 0.68 0 0 Z " fill="#646E6D" transform="translate(118,111)"/>
<path d="M0 0 C2.475 0.99 2.475 0.99 5 2 C4.67 2.66 4.34 3.32 4 4 C4.33 4.33 4.66 4.66 5 5 C4.01 5.66 3.02 6.32 2 7 C1.01 5.02 0.02 3.04 -1 1 C-0.67 0.67 -0.34 0.34 0 0 Z " fill="#617EC3" transform="translate(179,92)"/>
<path d="M0 0 C1.65 0.33 3.3 0.66 5 1 C4.34 2.32 3.68 3.64 3 5 C0.525 4.01 0.525 4.01 -2 3 C-1.34 2.67 -0.68 2.34 0 2 C0 1.34 0 0.68 0 0 Z " fill="#566061" transform="translate(122,80)"/>
<path d="M0 0 C-0.33 0.66 -0.66 1.32 -1 2 C-3.31 2 -5.62 2 -8 2 C-8 1.34 -8 0.68 -8 0 C-5.13822943 -1.43088528 -3.06624227 -0.59991697 0 0 Z " fill="#738CB3" transform="translate(89,111)"/>
<path d="M0 0 C1.32 0 2.64 0 4 0 C4 0.99 4 1.98 4 3 C2.02 3.66 0.04 4.32 -2 5 C-1.34 3.35 -0.68 1.7 0 0 Z " fill="#5579BD" transform="translate(190,80)"/>
</svg>
