<?xml version="1.0" encoding="UTF-8"?>
<svg version="1.1" xmlns="http://www.w3.org/2000/svg" width="78" height="77">
<path d="M0 0 C2.9234873 -0.29730379 5.14699435 -0.49409595 8 0 C14.15135409 5.45233658 17.10900694 13.01804057 17.609375 21.12890625 C17.67494201 23.27294741 17.72155708 25.4176451 17.75 27.5625 C17.77964844 28.66658203 17.80929688 29.77066406 17.83984375 30.90820312 C17.90990443 33.60553929 17.96291468 36.30204327 18 39 C22.02224534 39.0062953 26.04094362 38.94645464 30.0625 38.875 C31.19623047 38.87757812 32.32996094 38.88015625 33.49804688 38.8828125 C40.00386559 38.73107329 44.10060251 38.23504169 48.82592773 33.57470703 C50.2115083 31.88803847 50.2115083 31.88803847 51 29 C50.19780029 28.9906543 49.39560059 28.98130859 48.5690918 28.97167969 C44.94126361 28.91806258 41.31473708 28.83439702 37.6875 28.75 C35.79354492 28.72873047 35.79354492 28.72873047 33.86132812 28.70703125 C32.65283203 28.67480469 31.44433594 28.64257812 30.19921875 28.609375 C29.08377686 28.58842773 27.96833496 28.56748047 26.8190918 28.54589844 C24 28 24 28 22.07348633 26.12597656 C21 24 21 24 21.625 21.375 C23 19 23 19 26 17 C29.1862793 16.77294922 29.1862793 16.77294922 33.07421875 16.8046875 C34.09996758 16.80893234 34.09996758 16.80893234 35.1464386 16.81326294 C37.32697165 16.82444316 39.50709145 16.84954309 41.6875 16.875 C43.16731177 16.88503262 44.64712999 16.89415798 46.12695312 16.90234375 C49.751436 16.92437519 53.37567766 16.95888998 57 17 C56.51402344 16.5565625 56.02804688 16.113125 55.52734375 15.65625 C54 14 54 14 53.5625 11.5 C54 9 54 9 55.625 7.0625 C58 6 58 6 61.25 6.8125 C62.61125 7.4003125 62.61125 7.4003125 64 8 C64.25 14.625 64.25 14.625 62 18 C62.66 18.99 63.32 19.98 64 21 C64.77089222 27.29561977 63.0248515 32.5430633 60 38 C57.85657509 40.57945354 55.55555324 42.83208686 53 45 C53.40992188 45.61488281 53.81984375 46.22976562 54.2421875 46.86328125 C61 57 61 57 60.6875 59.625 C60 62 60 62 59 63 C55.875 63.625 55.875 63.625 52 63 C50.06571032 60.88314815 48.5708416 58.70102515 47.06640625 56.26171875 C42.96602858 51.77378175 37.66032266 50.90486706 31.84375 50.48828125 C30.06299216 50.41626531 28.28163719 50.35781781 26.5 50.3125 C25.5821875 50.27833984 24.664375 50.24417969 23.71875 50.20898438 C21.4792891 50.12733736 19.2401785 50.05792462 17 50 C17.02320312 50.77085938 17.04640625 51.54171875 17.0703125 52.3359375 C17.09738281 53.84027344 17.09738281 53.84027344 17.125 55.375 C17.14820312 56.37273438 17.17140625 57.37046875 17.1953125 58.3984375 C17 61 17 61 15 63 C11.5 63.3125 11.5 63.3125 8 63 C5.93516917 59.90275376 5.74857745 59.22428636 5.72875977 55.71557617 C5.71857315 54.85425583 5.70838654 53.99293549 5.69789124 53.10551453 C5.69575119 52.17737442 5.69361115 51.24923431 5.69140625 50.29296875 C5.66624167 48.32486689 5.64084371 46.356768 5.61523438 44.38867188 C5.58651775 41.28801269 5.56249943 38.18740525 5.54370117 35.08666992 C5.52200027 32.09266066 5.48255167 29.0992648 5.44140625 26.10546875 C5.44129044 25.18340134 5.44117462 24.26133392 5.4410553 23.31132507 C5.34635282 17.12899432 4.55744906 12.55744906 0 8 C-0.26991906 5.31160615 -0.08737357 2.70858064 0 0 Z " fill="#CB3200" transform="translate(7,7)"/>
<path d="M0 0 C2.4375 0.75 2.4375 0.75 4.4375 2.75 C4.0625 6.375 4.0625 6.375 3.4375 9.75 C-2.94957103 11.07561852 -2.94957103 11.07561852 -5.5625 9.6875 C-7.07889353 6.74948754 -6.48543717 4.84843192 -5.5625 1.75 C-2.5625 -0.25 -2.5625 -0.25 0 0 Z " fill="#CC3200" transform="translate(35.5625,11.25)"/>
</svg>
