<?xml version="1.0" encoding="UTF-8"?>
<svg version="1.1" xmlns="http://www.w3.org/2000/svg" width="200" height="200">
<path d="M0 0 C66 0 132 0 200 0 C200 66 200 132 200 200 C134 200 68 200 0 200 C0 134 0 68 0 0 Z " fill="#FEFEFE" transform="translate(0,0)"/>
<path d="M0 0 C19.4 0 19.4 0 25 4 C27.48386059 7.72579089 27.3804212 9.58711402 27 14 C25.34101659 17.6497635 23.56415939 20.12412664 20 22 C16.98794671 22.53674998 14.06029129 22.77497858 11 23 C11 27.95 11 32.9 11 38 C7.37 38 3.74 38 0 38 C0 25.46 0 12.92 0 0 Z " fill="#43B54C" transform="translate(9,80)"/>
<path d="M0 0 C3.3 0 6.6 0 10 0 C10.33 6.93 10.66 13.86 11 21 C12.32 18.69 13.64 16.38 15 14 C18.96 14 22.92 14 27 14 C25 18 25 18 22.8125 20.4375 C20.73080823 22.79765747 20.73080823 22.79765747 21.1953125 25.3359375 C22.09764462 28.32327004 23.38252012 30.56228321 25.0625 33.1875 C28 37.79764706 28 37.79764706 28 40 C24.04 40 20.08 40 16 40 C14.68 37.36 13.36 34.72 12 32 C11.67 34.64 11.34 37.28 11 40 C7.37 40 3.74 40 0 40 C0 26.8 0 13.6 0 0 Z " fill="#44B44D" transform="translate(142,78)"/>
<path d="M0 0 C1.01964844 -0.00773437 2.03929688 -0.01546875 3.08984375 -0.0234375 C7.47389361 0.56417496 10.11809861 2.20263965 12.875 5.625 C14.0625 8.375 14.0625 8.375 14.0625 15.375 C8.4525 15.375 2.8425 15.375 -2.9375 15.375 C-2.2775 16.695 -1.6175 18.015 -0.9375 19.375 C0.3825 19.375 1.7025 19.375 3.0625 19.375 C3.3925 18.715 3.7225 18.055 4.0625 17.375 C7.0325 17.375 10.0025 17.375 13.0625 17.375 C12.7280974 20.46822404 12.5029882 21.96387768 10.1875 24.125 C5.36724634 26.96044333 0.50064781 26.86225804 -4.9375 26.375 C-8.70042473 24.77375543 -10.77847382 22.82944189 -12.9375 19.375 C-14.14393566 15.75569302 -14.26018559 13.18268995 -13.9375 9.375 C-10.48822732 2.96920787 -7.37274861 -0.05578372 0 0 Z " fill="#46B44F" transform="translate(124.9375,91.625)"/>
<path d="M0 0 C3.22910257 1.62969717 5.36074583 3.72149165 7 7 C7 9.64 7 12.28 7 15 C1.39 15 -4.22 15 -10 15 C-9.34 16.32 -8.68 17.64 -8 19 C-4.70924004 18.62095792 -4.70924004 18.62095792 -2 17 C-0.48071962 16.92820036 1.04167482 16.91607993 2.5625 16.9375 C3.38878906 16.94652344 4.21507813 16.95554687 5.06640625 16.96484375 C6.02353516 16.98224609 6.02353516 16.98224609 7 17 C6.22020555 20.79553014 4.97771233 22.46018654 2 25 C-3.44612634 26.81537545 -9.61330308 26.89501135 -15 24.875 C-18.82662722 21.28753698 -20.1770853 17.6562111 -20.4375 12.5 C-20.27931105 8.03304544 -18.98622737 5.40098117 -16 2 C-11.16170005 -1.09054402 -5.52097195 -0.74448353 0 0 Z " fill="#43B54C" transform="translate(54,92)"/>
<path d="M0 0 C7.29531568 2.59063136 7.29531568 2.59063136 9 6 C8.38253906 6.02835937 7.76507813 6.05671875 7.12890625 6.0859375 C-1.45205226 7.05243815 -4.81136284 11.51925086 -10 18 C-10.67804688 18.62648438 -11.35609375 19.25296875 -12.0546875 19.8984375 C-14.55385809 22.59834468 -15.77183337 25.39053039 -17.25 28.75 C-17.77078125 29.92046875 -18.2915625 31.0909375 -18.828125 32.296875 C-19.21484375 33.18890625 -19.6015625 34.0809375 -20 35 C-22.6663255 32.60588968 -24.21723265 30.07119607 -25.91796875 26.9296875 C-26.44970703 25.95128906 -26.98144531 24.97289063 -27.52929688 23.96484375 C-28.07650391 22.94519531 -28.62371094 21.92554687 -29.1875 20.875 C-29.74630859 19.84761719 -30.30511719 18.82023437 -30.88085938 17.76171875 C-35 10.14709249 -35 10.14709249 -35 9 C-32.36 9 -29.72 9 -27 9 C-26.67 7.68 -26.34 6.36 -26 5 C-25.34 5 -24.68 5 -24 5 C-23.67 5.66 -23.34 6.32 -23 7 C-22.01 7.33 -21.02 7.66 -20 8 C-18.04457812 10.98459129 -18 12.26414791 -18 16 C-16.80224458 13.06877209 -16.80224458 13.06877209 -17.25 10.125 C-17 7 -17 7 -14.6875 4.25 C-9.59732048 -0.01154565 -6.48406279 -0.87707129 0 0 Z " fill="#52B45B" transform="translate(118,83)"/>
<path d="M0 0 C2.37109375 1.0234375 2.37109375 1.0234375 4 2 C2.02 4.97 2.02 4.97 0 8 C-2.31 7.34 -4.62 6.68 -7 6 C-5.60020312 8.79959376 -3.36842507 9.56927595 -0.69140625 11 C1 12 1 12 3 14 C3.44678306 18.02104757 3.6808704 20.13756416 1.125 23.375 C-2.22810618 25.93914002 -4.191834 26.15946269 -8.375 26.1875 C-9.80972656 26.20876953 -9.80972656 26.20876953 -11.2734375 26.23046875 C-14.03010017 25.99745572 -15.64947395 25.40920164 -18 24 C-16.75023244 20.34683329 -16.32901247 19.21934164 -13 17 C-9.8125 17.875 -9.8125 17.875 -7 19 C-7 18.34 -7 17.68 -7 17 C-7.721875 16.7525 -8.44375 16.505 -9.1875 16.25 C-12.40837128 14.81850165 -14.5678185 13.5711633 -17 11 C-17.625 7.5 -17.625 7.5 -17 4 C-13.01816928 -1.54612136 -6.18704631 -0.73189269 0 0 Z " fill="#48B34F" transform="translate(189,92)"/>
<path d="M0 0 C5.61 0 11.22 0 17 0 C17 2.64 17 5.28 17 8 C15.02 8.33 13.04 8.66 11 9 C10.67 14.61 10.34 20.22 10 26 C6.7 26 3.4 26 0 26 C0 17.42 0 8.84 0 0 Z " fill="#42B54B" transform="translate(65,92)"/>
<path d="M0 0 C12.875 0.875 12.875 0.875 14 2 C14.23481693 4.18292774 14.41363323 6.37203174 14.5625 8.5625 C14.64628906 9.76003906 14.73007813 10.95757812 14.81640625 12.19140625 C14.87699219 13.11824219 14.93757813 14.04507813 15 15 C15.54398438 14.82855469 16.08796875 14.65710938 16.6484375 14.48046875 C19.43909882 13.9102838 21.79081555 14.05658308 24.625 14.3125 C25.58664063 14.39113281 26.54828125 14.46976563 27.5390625 14.55078125 C30 15 30 15 32 17 C32.54140625 16.67257813 33.0828125 16.34515625 33.640625 16.0078125 C36.50719067 14.78335233 38.6452987 14.80107854 41.75 14.875 C42.73484375 14.89304687 43.7196875 14.91109375 44.734375 14.9296875 C45.85585937 14.96449219 45.85585937 14.96449219 47 15 C47 15.33 47 15.66 47 16 C46.32453125 16.03738281 45.6490625 16.07476562 44.953125 16.11328125 C44.06109375 16.17902344 43.1690625 16.24476562 42.25 16.3125 C41.36828125 16.37050781 40.4865625 16.42851563 39.578125 16.48828125 C36.62715106 17.07400487 35.17448132 17.94412675 33 20 C32.1957792 22.59855733 32.1957792 22.59855733 32 25 C31.67 25 31.34 25 31 25 C30.67 23.35 30.34 21.7 30 20 C29.01 19.67 28.02 19.34 27 19 C27.66 18.01 28.32 17.02 29 16 C25.04 16 21.08 16 17 16 C16.34 17.65 15.68 19.3 15 21 C14.01 21.99 13.02 22.98 12 24 C12 16.74 12 9.48 12 2 C8.7 2 5.4 2 2 2 C2 15.2 2 28.4 2 42 C1.67 42 1.34 42 1 42 C0.67 39.69 0.34 37.38 0 35 C-0.99 35.99 -1.98 36.98 -3 38 C-2.67 36.35 -2.34 34.7 -2 33 C-4.97 33 -7.94 33 -11 33 C-11.33 33.99 -11.66 34.98 -12 36 C-13.65 35.67 -15.3 35.34 -17 35 C-17.33 33.68 -17.66 32.36 -18 31 C-12.39 31 -6.78 31 -1 31 C-1.33 28.36 -1.66 25.72 -2 23 C-1.34 23 -0.68 23 0 23 C0 15.41 0 7.82 0 0 Z " fill="#E8FCE7" transform="translate(140,76)"/>
<path d="M0 0 C3.96 0 7.92 0 12 0 C10 4 10 4 7.8125 6.4375 C5.73080823 8.79765747 5.73080823 8.79765747 6.1953125 11.3359375 C7.09764462 14.32327004 8.38252012 16.56228321 10.0625 19.1875 C13 23.79764706 13 23.79764706 13 26 C9.04 26 5.08 26 1 26 C-0.32 23.36 -1.64 20.72 -3 18 C-3.33 20.64 -3.66 23.28 -4 26 C-7.63 26 -11.26 26 -15 26 C-15 20.06 -15 14.12 -15 8 C-14.67 8 -14.34 8 -14 8 C-13.67 13.28 -13.34 18.56 -13 24 C-10.36 24.33 -7.72 24.66 -5 25 C-5 21.7 -5 18.4 -5 15 C-3.68 15.33 -2.36 15.66 -1 16 C-1.33 15.67 -1.66 15.34 -2 15 C-2.36442233 13.33985384 -2.69972883 11.67293936 -3 10 C-2.34 9.67 -1.68 9.34 -1 9 C-1 9.66 -1 10.32 -1 11 C2.62793998 9.13433512 2.62793998 9.13433512 5 6 C5.66 6 6.32 6 7 6 C7 5.01 7 4.02 7 3 C7.66 3 8.32 3 9 3 C9 2.34 9 1.68 9 1 C4.545 1.495 4.545 1.495 0 2 C0 1.34 0 0.68 0 0 Z " fill="#45B64C" transform="translate(157,92)"/>
<path d="M0 0 C0 0.66 0 1.32 0 2 C-1.98 2.33 -3.96 2.66 -6 3 C-5.34 4.98 -4.68 6.96 -4 9 C-4.99 9 -5.98 9 -7 9 C-7 9.66 -7 10.32 -7 11 C-8.98 11.33 -10.96 11.66 -13 12 C-13.33 17.28 -13.66 22.56 -14 28 C-14.33 28 -14.66 28 -15 28 C-15.02684312 25.18743719 -15.04676188 22.37512759 -15.0625 19.5625 C-15.07087891 18.76005859 -15.07925781 17.95761719 -15.08789062 17.13085938 C-15.0965143 15.08704779 -15.0522815 13.04316098 -15 11 C-14 10 -14 10 -10.9375 9.9375 C-9.4834375 9.9684375 -9.4834375 9.9684375 -8 10 C-8 7.36 -8 4.72 -8 2 C-9.423125 2.2784375 -9.423125 2.2784375 -10.875 2.5625 C-15 3 -15 3 -25 2 C-25 10.58 -25 19.16 -25 28 C-25.33 28 -25.66 28 -26 28 C-26 25.36 -26 22.72 -26 20 C-27.95803507 19.94610913 -29.91648909 19.90725783 -31.875 19.875 C-32.96554688 19.85179688 -34.05609375 19.82859375 -35.1796875 19.8046875 C-38.1371051 19.69939466 -38.1371051 19.69939466 -40 22 C-42.625 21.625 -42.625 21.625 -45 21 C-45.33 19.68 -45.66 18.36 -46 17 C-40.39 17 -34.78 17 -29 17 C-29.268125 15.4325 -29.53625 13.865 -29.8125 12.25 C-29.96332031 11.36828125 -30.11414062 10.4865625 -30.26953125 9.578125 C-31.05414248 6.8089089 -32.14595359 5.1740599 -34 3 C-32.68 3 -31.36 3 -30 3 C-29.34 4.65 -28.68 6.3 -28 8 C-27.67 5.69 -27.34 3.38 -27 1 C-17.97582223 0.30962574 -9.05638678 -0.15178302 0 0 Z " fill="#D1F2D3" transform="translate(90,90)"/>
<path d="M0 0 C0.66 0.33 1.32 0.66 2 1 C2.185625 2.051875 2.37125 3.10375 2.5625 4.1875 C3.49694532 8.00380608 5.36694629 9.24243771 8.625 11.3125 C9.44226563 11.78300781 10.25953125 12.25351563 11.1015625 12.73828125 C11.72804687 13.15464844 12.35453125 13.57101563 13 14 C13 14.66 13 15.32 13 16 C10.69 15.67 8.38 15.34 6 15 C4.02 17.97 4.02 17.97 2 21 C5.22400573 21.95807717 8.14285676 22.13422292 11.5 22.125 C12.4384375 22.12757812 13.376875 22.13015625 14.34375 22.1328125 C16.7214263 22.01392868 18.72683096 21.67551722 21 21 C20.67 21.99 20.34 22.98 20 24 C17.58325776 24.02705308 15.1668206 24.04686438 12.75 24.0625 C11.72712891 24.07506836 11.72712891 24.07506836 10.68359375 24.08789062 C3.26268243 24.12391447 3.26268243 24.12391447 1 23 C-0.63190894 20.92568846 -1.96872325 18.99536005 -3.3125 16.75 C-3.68439453 16.17636719 -4.05628906 15.60273437 -4.43945312 15.01171875 C-6.12466173 12.25638699 -7.03167855 10.47989633 -6.81640625 7.21875 C-5.88353718 4.6834886 -4.83844958 2.97986878 -3 1 C-2.01 0.67 -1.02 0.34 0 0 Z " fill="#F0FCF0" transform="translate(169,95)"/>
<path d="M0 0 C0.33 0.66 0.66 1.32 1 2 C1.66 2 2.32 2 3 2 C3 3.32 3 4.64 3 6 C2.34 6 1.68 6 1 6 C1.66 8.31 2.32 10.62 3 13 C3.66 13 4.32 13 5 13 C5 12.34 5 11.68 5 11 C6.98 11 8.96 11 11 11 C11.33 10.34 11.66 9.68 12 9 C14.97 9 17.94 9 21 9 C20.6655974 12.09322404 20.4404882 13.58887768 18.125 15.75 C13.31386353 18.58008028 8.4300656 18.50310512 3 18 C-0.02286884 16.61451845 -1.66871425 15.33128575 -4 13 C-4.68571429 6.02857143 -4.68571429 6.02857143 -2 2 C-1.34 1.34 -0.68 0.68 0 0 Z " fill="#56AF5C" transform="translate(117,100)"/>
<path d="M0 0 C4.31606218 -1.05699482 4.31606218 -1.05699482 7 0 C9.83687915 3.74599486 11.93746355 7.78715959 14 12 C14.66 11.34 15.32 10.68 16 10 C18.625 10.375 18.625 10.375 21 11 C19.36041242 16.23272633 17.61047965 21.15196636 15 26 C12.3336745 23.60588968 10.78276735 21.07119607 9.08203125 17.9296875 C8.55029297 16.95128906 8.01855469 15.97289063 7.47070312 14.96484375 C6.92349609 13.94519531 6.37628906 12.92554687 5.8125 11.875 C5.25369141 10.84761719 4.69488281 9.82023437 4.11914062 8.76171875 C0 1.14709249 0 1.14709249 0 0 Z " fill="#4EB458" transform="translate(83,92)"/>
<path d="M0 0 C7.28527919 2.57055838 7.28527919 2.57055838 9 6 C8.33613281 6.08636719 7.67226562 6.17273438 6.98828125 6.26171875 C0.89179878 7.23181596 -1.73112279 8.39410617 -6 13 C-8.62593918 14.25609897 -11.21889466 15.1043898 -14 16 C-12.6062718 11.56541027 -10.39417765 9.12621626 -7 6 C-7.5775 6.33 -8.155 6.66 -8.75 7 C-11 8 -11 8 -15 8 C-15 7.34 -15 6.68 -15 6 C-14.34 6 -13.68 6 -13 6 C-12.71125 5.195625 -12.4225 4.39125 -12.125 3.5625 C-9.92860469 -1.44040044 -4.81801254 -0.57357292 0 0 Z " fill="#43B44C" transform="translate(118,83)"/>
<path d="M0 0 C15.92938497 -0.55353075 15.92938497 -0.55353075 22 3 C22 3.33 22 3.66 22 4 C18.28400809 4.20086443 17.22791555 4.1519437 14 2 C13.957279 3.66611905 13.95936168 5.33382885 14 7 C14.33 7.33 14.66 7.66 15 8 C14.9140625 9.8125 14.9140625 9.8125 14.625 12 C14.53476562 12.721875 14.44453125 13.44375 14.3515625 14.1875 C14 16 14 16 13 17 C10.66702567 17.04092937 8.33294775 17.04241723 6 17 C6.11382653 15.04098546 6.24141125 13.0827662 6.375 11.125 C6.44460937 10.03445312 6.51421875 8.94390625 6.5859375 7.8203125 C7 5 7 5 9 3 C9 2.67 9 2.34 9 2 C6.03 1.67 3.06 1.34 0 1 C0 0.67 0 0.34 0 0 Z " fill="#50B65A" transform="translate(11,80)"/>
<path d="M0 0 C3.23307772 1.61956043 5.36183145 3.7236629 7 7 C7 9.64 7 12.28 7 15 C1.39 15 -4.22 15 -10 15 C-10 14.67 -10 14.34 -10 14 C-7.69 13.34 -5.38 12.68 -3 12 C-6.3 11.34 -9.6 10.68 -13 10 C-12.67 8.68 -12.34 7.36 -12 6 C-2.7480916 5.69160305 -2.7480916 5.69160305 0 8 C0.75 10.625 0.75 10.625 1 13 C2.65 13 4.3 13 6 13 C5.19485961 9.19388179 4.471858 6.55765037 1.9375 3.5625 C-3.26098024 0.79735094 -8.51061191 1.44592179 -14.0625 3 C-15.031875 3.33 -16.00125 3.66 -17 4 C-12.12828291 -1.09315878 -6.80786901 -0.81658924 0 0 Z " fill="#57AE5E" transform="translate(54,92)"/>
<path d="M0 0 C0.99 0.495 0.99 0.495 2 1 C2 12.88 2 24.76 2 37 C5.465 36.505 5.465 36.505 9 36 C8.835 35.195625 8.67 34.39125 8.5 33.5625 C7.90752652 29.34112648 7.91493291 25.25335455 8 21 C8.58007812 20.93941406 9.16015625 20.87882812 9.7578125 20.81640625 C14.20092863 20.33983439 18.59905423 19.78991334 23 19 C21.30820672 21.04219706 20.36272334 21.91793306 17.73828125 22.51171875 C15.4921875 22.67447917 13.24609375 22.83723958 11 23 C11 27.95 11 32.9 11 38 C7.37 38 3.74 38 0 38 C0 25.46 0 12.92 0 0 Z " fill="#5DB264" transform="translate(9,80)"/>
<path d="M0 0 C3.3 0 6.6 0 10 0 C10.33 0.66 10.66 1.32 11 2 C8.03 1.67 5.06 1.34 2 1 C1.67 8.92 1.34 16.84 1 25 C1.99 25 2.98 25 4 25 C4.66 23.68 5.32 22.36 6 21 C6 21.66 6 22.32 6 23 C6.66 23 7.32 23 8 23 C7.98839844 22.09636719 7.97679688 21.19273438 7.96484375 20.26171875 C7.95582031 19.08222656 7.94679688 17.90273437 7.9375 16.6875 C7.92589844 15.51574219 7.91429688 14.34398438 7.90234375 13.13671875 C8 10 8 10 9 7 C12.465 6.505 12.465 6.505 16 6 C16 4.35 16 2.7 16 1 C14.68 0.67 13.36 0.34 12 0 C13.65 0 15.3 0 17 0 C17 2.64 17 5.28 17 8 C15.02 8.33 13.04 8.66 11 9 C10.67 14.61 10.34 20.22 10 26 C6.7 26 3.4 26 0 26 C0 17.42 0 8.84 0 0 Z " fill="#59B160" transform="translate(65,92)"/>
<path d="M0 0 C0.66 0 1.32 0 2 0 C2.33 4.29 2.66 8.58 3 13 C4.32 12.67 5.64 12.34 7 12 C9.7265625 12.05078125 9.7265625 12.05078125 12.625 12.3125 C13.58664063 12.39113281 14.54828125 12.46976563 15.5390625 12.55078125 C18 13 18 13 20 15 C20.54140625 14.67257813 21.0828125 14.34515625 21.640625 14.0078125 C24.50719067 12.78335233 26.6452987 12.80107854 29.75 12.875 C30.73484375 12.89304687 31.7196875 12.91109375 32.734375 12.9296875 C33.85585937 12.96449219 33.85585937 12.96449219 35 13 C35 13.33 35 13.66 35 14 C34.32453125 14.03738281 33.6490625 14.07476562 32.953125 14.11328125 C32.06109375 14.17902344 31.1690625 14.24476562 30.25 14.3125 C29.36828125 14.37050781 28.4865625 14.42851563 27.578125 14.48828125 C24.62715106 15.07400487 23.17448132 15.94412675 21 18 C20.1957792 20.59855733 20.1957792 20.59855733 20 23 C19.67 23 19.34 23 19 23 C18.505 20.525 18.505 20.525 18 18 C17.01 17.67 16.02 17.34 15 17 C15.66 16.01 16.32 15.02 17 14 C13.04 14 9.08 14 5 14 C4.34 15.65 3.68 17.3 3 19 C2.01 19.99 1.02 20.98 0 22 C0 14.74 0 7.48 0 0 Z " fill="#CEF0CF" transform="translate(152,78)"/>
<path d="M0 0 C0.33 0 0.66 0 1 0 C1.33 5.28 1.66 10.56 2 16 C4.64 16.33 7.28 16.66 10 17 C10 13.7 10 10.4 10 7 C11.32 7.33 12.64 7.66 14 8 C14.70211894 9.65204456 15.36971413 11.31923769 16 13 C16.99 13.33 17.98 13.66 19 14 C19 14.66 19 15.32 19 16 C20.65 16 22.3 16 24 16 C24.33 14.68 24.66 13.36 25 12 C28 15.75 28 15.75 28 18 C24.04 18 20.08 18 16 18 C14.68 15.36 13.36 12.72 12 10 C11.67 12.64 11.34 15.28 11 18 C7.37 18 3.74 18 0 18 C0 12.06 0 6.12 0 0 Z " fill="#64B76E" transform="translate(142,100)"/>
<path d="M0 0 C0.66 0 1.32 0 2 0 C2.33 0.66 2.66 1.32 3 2 C3.99 2.33 4.98 2.66 6 3 C7.7159282 5.39582429 8.03520265 6.62526214 7.7578125 9.578125 C7.54898438 10.45984375 7.34015625 11.3415625 7.125 12.25 C6.92132813 13.14203125 6.71765625 14.0340625 6.5078125 14.953125 C6.25644531 15.96632813 6.25644531 15.96632813 6 17 C3.37713258 14.64019303 1.81594776 12.18330046 0.1875 9.0625 C-0.27269531 8.20785156 -0.73289062 7.35320312 -1.20703125 6.47265625 C-2 4 -2 4 -1.13671875 1.68359375 C-0.76160156 1.12800781 -0.38648437 0.57242188 0 0 Z " fill="#C7F5D2" transform="translate(92,88)"/>
<path d="M0 0 C1.91635217 -0.05423638 3.83314925 -0.09289963 5.75 -0.125 C7.35101563 -0.15980469 7.35101563 -0.15980469 8.984375 -0.1953125 C11.92470106 -0.00487687 13.52361878 0.47329896 16 2 C14.02 4.97 14.02 4.97 12 8 C9.69 7.34 7.38 6.68 5 6 C6.39979688 8.79959376 8.63157493 9.56927595 11.30859375 11 C13 12 13 12 15 14 C15.125 17.625 15.125 17.625 15 21 C14.67 21 14.34 21 14 21 C14 19.35 14 17.7 14 16 C13.34 16 12.68 16 12 16 C11.34 15.01 10.68 14.02 10 13 C8.05167065 11.99831469 8.05167065 11.99831469 5.875 11.3125 C5.15054688 11.06113281 4.42609375 10.80976562 3.6796875 10.55078125 C3.12539062 10.36902344 2.57109375 10.18726562 2 10 C2.33 8.35 2.66 6.7 3 5 C5.97 5 8.94 5 12 5 C12 4.01 12 3.02 12 2 C8.04 1.67 4.08 1.34 0 1 C0 0.67 0 0.34 0 0 Z " fill="#4CB24F" transform="translate(177,92)"/>
<path d="M0 0 C0.33 0 0.66 0 1 0 C1 1.98 1 3.96 1 6 C0.34 6 -0.32 6 -1 6 C-0.67 8.64 -0.34 11.28 0 14 C1.32 13.67 2.64 13.34 4 13 C4.061875 13.61875 4.12375 14.2375 4.1875 14.875 C4.82562257 17.1770112 4.82562257 17.1770112 7.0625 18.3125 C11.09720531 19.25679273 13.92587199 18.80146781 18 18 C18.66 17.34 19.32 16.68 20 16 C20.99 16.33 21.98 16.66 23 17 C20.37710698 19.87269236 18.43709274 20.88432071 14.4765625 21.203125 C4.59001975 21.36564351 4.59001975 21.36564351 1 18 C-2.24481219 13.30061683 -2.81654955 8.5673833 -2 3 C-1.34 2.01 -0.68 1.02 0 0 Z " fill="#5AB263" transform="translate(36,97)"/>
<path d="M0 0 C0.33 0.66 0.66 1.32 1 2 C1.66 2 2.32 2 3 2 C3 3.32 3 4.64 3 6 C2.34 6 1.68 6 1 6 C1.59861742 8.35171131 2.26924352 10.6859378 3 13 C3.66 13.33 4.32 13.66 5 14 C1.25 15.125 1.25 15.125 -1 14 C-1 13.01 -1 12.02 -1 11 C-1.99 11 -2.98 11 -4 11 C-4.36630156 7.06225823 -4.30233203 5.43460229 -2 2.125 C-1.34 1.42375 -0.68 0.7225 0 0 Z " fill="#3EB648" transform="translate(117,100)"/>
<path d="M0 0 C0.99 1.485 0.99 1.485 2 3 C1.34 3 0.68 3 0 3 C0.33 3.99 0.66 4.98 1 6 C-0.45880109 5.85892253 -1.91703551 5.71197585 -3.375 5.5625 C-4.59316406 5.44068359 -4.59316406 5.44068359 -5.8359375 5.31640625 C-8 5 -8 5 -10 4 C-9.67 2.35 -9.34 0.7 -9 -1 C-5.38792253 -2.33780647 -3.37254128 -1.77502172 0 0 Z " fill="#5BB763" transform="translate(131,98)"/>
<path d="M0 0 C0.33 0 0.66 0 1 0 C1 2.97 1 5.94 1 9 C0.30132812 8.97679688 -0.39734375 8.95359375 -1.1171875 8.9296875 C-2.48230469 8.90261719 -2.48230469 8.90261719 -3.875 8.875 C-4.77992187 8.85179688 -5.68484375 8.82859375 -6.6171875 8.8046875 C-9.18806994 8.75675164 -9.18806994 8.75675164 -11 11 C-13.625 10.625 -13.625 10.625 -16 10 C-16.33 8.68 -16.66 7.36 -17 6 C-11.39 6 -5.78 6 0 6 C0 4.02 0 2.04 0 0 Z " fill="#C2F0C7" transform="translate(61,101)"/>
<path d="M0 0 C8.57142857 -0.28571429 8.57142857 -0.28571429 12 2 C12 3.98 12 5.96 12 8 C11.01 7.67 10.02 7.34 9 7 C9 6.67 9 6.34 9 6 C5.7 5.34 2.4 4.68 -1 4 C-0.67 2.68 -0.34 1.36 0 0 Z " fill="#4FB058" transform="translate(42,98)"/>
<path d="M0 0 C0.5775 0.226875 1.155 0.45375 1.75 0.6875 C1.09 0.6875 0.43 0.6875 -0.25 0.6875 C-0.91 2.3375 -1.57 3.9875 -2.25 5.6875 C-3.24 5.6875 -4.23 5.6875 -5.25 5.6875 C-5.25 6.3475 -5.25 7.0075 -5.25 7.6875 C-6.24 7.6875 -7.23 7.6875 -8.25 7.6875 C-8.25 11.3175 -8.25 14.9475 -8.25 18.6875 C-10.75304378 14.93293433 -10.70280074 13.14004066 -10.25 8.6875 C-5.18439364 -0.72005467 -5.18439364 -0.72005467 0 0 Z " fill="#5AB362" transform="translate(121.25,92.3125)"/>
<path d="M0 0 C1.62490954 -0.02698189 3.24994633 -0.04638757 4.875 -0.0625 C5.77992188 -0.07410156 6.68484375 -0.08570312 7.6171875 -0.09765625 C10 0 10 0 12 1 C12 1.99 12 2.98 12 4 C9.03 4 6.06 4 3 4 C3 4.66 3 5.32 3 6 C1.68 5.67 0.36 5.34 -1 5 C-0.67 3.35 -0.34 1.7 0 0 Z " fill="#40B64A" transform="translate(177,93)"/>
<path d="M0 0 C1.98 0 3.96 0 6 0 C6 1.32 6 2.64 6 4 C1.37802694 6.21854707 -1.76824163 7.38281159 -7 7 C-6.25 5.0625 -6.25 5.0625 -5 3 C-2.9375 2.375 -2.9375 2.375 -1 2 C-0.67 1.34 -0.34 0.68 0 0 Z " fill="#43B549" transform="translate(130,110)"/>
<path d="M0 0 C5.61 0 11.22 0 17 0 C16.67 0.66 16.34 1.32 16 2 C13.03 2 10.06 2 7 2 C6.67 2.99 6.34 3.98 6 5 C4.35 4.67 2.7 4.34 1 4 C0.67 2.68 0.34 1.36 0 0 Z " fill="#C7F3CC" transform="translate(122,107)"/>
<path d="M0 0 C0 0.66 0 1.32 0 2 C1.32 2.33 2.64 2.66 4 3 C3.33613281 3.02578125 2.67226562 3.0515625 1.98828125 3.078125 C-3.56100642 3.4345756 -6.96228622 3.83610767 -11 8 C-11.66 8.66 -12.32 9.32 -13 10 C-13.66 9.34 -14.32 8.68 -15 8 C-13.87811441 6.85111717 -12.75238316 5.70598863 -11.625 4.5625 C-10.99851562 3.92441406 -10.37203125 3.28632812 -9.7265625 2.62890625 C-6.57264018 -0.3466268 -4.21911479 -0.09171989 0 0 Z " fill="#D1F6D1" transform="translate(125,89)"/>
<path d="M0 0 C0.66 1.32 1.32 2.64 2 4 C2.66 4 3.32 4 4 4 C4 5.98 4 7.96 4 10 C1.47154472 8.73577236 1.23577236 7.47154472 0 5 C-0.66 4.67 -1.32 4.34 -2 4 C-2 4.66 -2 5.32 -2 6 C-4 6 -4 6 -5.625 4.625 C-7 3 -7 3 -7 1 C-4.53721199 -0.231394 -2.7204945 -0.07159196 0 0 Z " fill="#40B54C" transform="translate(187,104)"/>
<path d="M0 0 C5.75 1.75 5.75 1.75 8 4 C7.625 7.125 7.625 7.125 7 10 C4.625 8.9375 4.625 8.9375 2 7 C0.6875 3.3125 0.6875 3.3125 0 0 Z " fill="#4DB06E" transform="translate(92,91)"/>
<path d="M0 0 C1.45742463 -0.08096803 2.91612807 -0.13917774 4.375 -0.1875 C5.18710938 -0.22230469 5.99921875 -0.25710937 6.8359375 -0.29296875 C7.55007812 -0.19628906 8.26421875 -0.09960938 9 0 C9.66 0.99 10.32 1.98 11 3 C6.375 6 6.375 6 3 6 C2.01 4.02 1.02 2.04 0 0 Z " fill="#42B44E" transform="translate(111,85)"/>
<path d="M0 0 C0.33 0.99 0.66 1.98 1 3 C-7.97259678 8.15093519 -7.97259678 8.15093519 -12.375 8.1875 C-13.53128906 8.20876953 -13.53128906 8.20876953 -14.7109375 8.23046875 C-17.21834888 7.97801607 -18.83261902 7.25193467 -21 6 C-20.67 5.34 -20.34 4.68 -20 4 C-19.34 4.33 -18.68 4.66 -18 5 C-9.43198628 5.73451331 -9.43198628 5.73451331 -2 2 C-1.34 1.34 -0.68 0.68 0 0 Z " fill="#E0FAE1" transform="translate(60,112)"/>
<path d="M0 0 C4.87505557 0.15159747 8.82008194 1.64688125 12.8125 4.4375 C13.1425 5.0975 13.4725 5.7575 13.8125 6.4375 C11.5025 6.4375 9.1925 6.4375 6.8125 6.4375 C6.8125 5.4475 6.8125 4.4575 6.8125 3.4375 C2.1925 3.4375 -2.4275 3.4375 -7.1875 3.4375 C-3.75664894 0.00664894 -3.75664894 0.00664894 0 0 Z " fill="#58B15C" transform="translate(113.1875,82.5625)"/>
<path d="M0 0 C1.5 1.375 1.5 1.375 3 3 C3 3.66 3 4.32 3 5 C2.01 5 1.02 5 0 5 C0 5.66 0 6.32 0 7 C-1.98 7.33 -3.96 7.66 -6 8 C-6.33 13.28 -6.66 18.56 -7 24 C-7.33 24 -7.66 24 -8 24 C-8.02684312 21.18743719 -8.04676188 18.37512759 -8.0625 15.5625 C-8.07087891 14.76005859 -8.07925781 13.95761719 -8.08789062 13.13085938 C-8.0965143 11.08704779 -8.0522815 9.04316098 -8 7 C-7 6 -7 6 -3.9375 5.9375 C-2.4834375 5.9684375 -2.4834375 5.9684375 -1 6 C-1.020625 5.195625 -1.04125 4.39125 -1.0625 3.5625 C-1 1 -1 1 0 0 Z " fill="#D9FADA" transform="translate(83,94)"/>
<path d="M0 0 C2.33294775 -0.04241723 4.66702567 -0.04092937 7 0 C8 1 8 1 8.0625 4.0625 C8.041875 5.031875 8.02125 6.00125 8 7 C7.01 7.33 6.02 7.66 5 8 C4.896875 7.360625 4.79375 6.72125 4.6875 6.0625 C4.3471875 5.0415625 4.3471875 5.0415625 4 4 C3.01 3.67 2.02 3.34 1 3 C0.67 2.01 0.34 1.02 0 0 Z " fill="#48B250" transform="translate(83,92)"/>
<path d="M0 0 C-0.75 6.75 -0.75 6.75 -3 9 C-7 3.25 -7 3.25 -7 1 C-4 0 -4 0 0 0 Z " fill="#53B15B" transform="translate(100,109)"/>
<path d="M0 0 C4 1 4 1 5 2 C5.04063832 3.66617115 5.042721 5.33388095 5 7 C3.35 7.66 1.7 8.32 0 9 C0 6.03 0 3.06 0 0 Z " fill="#E9FCEB" transform="translate(20,87)"/>
<path d="M0 0 C0.66 0.33 1.32 0.66 2 1 C1.67 1.66 1.34 2.32 1 3 C0.34 3 -0.32 3 -1 3 C-1 3.66 -1 4.32 -1 5 C1.64 4.34 4.28 3.68 7 3 C6.67 3.99 6.34 4.98 6 6 C3.6875 7.0625 3.6875 7.0625 1 8 C-0.34050052 8.65213539 -1.67661368 9.31379969 -3 10 C-3.36923077 4.58461538 -3.36923077 4.58461538 -1.5 1.625 C-1.005 1.08875 -0.51 0.5525 0 0 Z " fill="#73C77B" transform="translate(104,86)"/>
<path d="M0 0 C1.91635217 -0.05423638 3.83314925 -0.09289963 5.75 -0.125 C7.35101563 -0.15980469 7.35101563 -0.15980469 8.984375 -0.1953125 C11.92470106 -0.00487687 13.52361878 0.47329896 16 2 C14.02 4.97 14.02 4.97 12 8 C10.68 7.34 9.36 6.68 8 6 C9.32 5.67 10.64 5.34 12 5 C12 4.01 12 3.02 12 2 C8.04 1.67 4.08 1.34 0 1 C0 0.67 0 0.34 0 0 Z " fill="#5EB063" transform="translate(177,92)"/>
<path d="M0 0 C3.96 0 7.92 0 12 0 C10.24390578 3.51218843 8.46387728 5.99714957 6 9 C5.01 10.485 5.01 10.485 4 12 C4.33 10.02 4.66 8.04 5 6 C5.66 6 6.32 6 7 6 C7 5.01 7 4.02 7 3 C7.66 3 8.32 3 9 3 C9 2.34 9 1.68 9 1 C4.545 1.495 4.545 1.495 0 2 C0 1.34 0 0.68 0 0 Z " fill="#5EB064" transform="translate(157,92)"/>
<path d="M0 0 C0.66 0 1.32 0 2 0 C2 2.97 2 5.94 2 9 C3.65 8.34 5.3 7.68 7 7 C6.67 7.99 6.34 8.98 6 10 C3.69 10 1.38 10 -1 10 C-0.67 6.7 -0.34 3.4 0 0 Z " fill="#63BA69" transform="translate(18,87)"/>
<path d="M0 0 C0.66 0.99 1.32 1.98 2 3 C1.01 4.485 1.01 4.485 0 6 C-0.6320746 10.96364462 -0.32005605 15.5048914 2 20 C1.01 19.67 0.02 19.34 -1 19 C-1.96070434 16.11788698 -2.10581883 14.30149956 -2.0625 11.3125 C-2.05347656 10.50425781 -2.04445312 9.69601563 -2.03515625 8.86328125 C-2.01775391 7.94095703 -2.01775391 7.94095703 -2 7 C-2.66 6.67 -3.32 6.34 -4 6 C-3.525625 5.566875 -3.05125 5.13375 -2.5625 4.6875 C-0.76313043 2.97690387 -0.76313043 2.97690387 0 0 Z " fill="#D1F6D2" transform="translate(35,94)"/>
<path d="M0 0 C3.10551666 3.10551666 3.81323934 4.89198233 5 9 C3.35 9 1.7 9 0 9 C0 6.03 0 3.06 0 0 Z " fill="#E6FCE6" transform="translate(153,109)"/>
<path d="M0 0 C0.99 0.66 1.98 1.32 3 2 C-1.85359495 6.01676824 -7.04972335 5.28136159 -13 5 C-13 4.67 -13 4.34 -13 4 C-11.783125 3.896875 -10.56625 3.79375 -9.3125 3.6875 C-5.58930552 3.23780688 -3.08337005 2.21617222 0 0 Z " fill="#59B364" transform="translate(188,113)"/>
<path d="M0 0 C15.92938497 -0.55353075 15.92938497 -0.55353075 22 3 C22 3.33 22 3.66 22 4 C18.28400809 4.20086443 17.22791555 4.1519437 14 2 C11.61322924 1.70547416 9.21373906 1.5071783 6.8125 1.375 C5.54019531 1.30023438 4.26789062 1.22546875 2.95703125 1.1484375 C1.49330078 1.07496094 1.49330078 1.07496094 0 1 C0 0.67 0 0.34 0 0 Z " fill="#5DB368" transform="translate(11,80)"/>
<path d="M0 0 C0 3.96 0 7.92 0 12 C-0.66 11.67 -1.32 11.34 -2 11 C-2.40729228 8.67843403 -2.74438677 6.3431213 -3 4 C-4.98 4.99 -4.98 4.99 -7 6 C-5.81636731 2.44910192 -3.99368042 0 0 0 Z " fill="#E7FDE8" transform="translate(112,98)"/>
<path d="M0 0 C1.65 0.33 3.3 0.66 5 1 C5.33 1.99 5.66 2.98 6 4 C3.36 4 0.72 4 -2 4 C-1.34 2.68 -0.68 1.36 0 0 Z " fill="#D7F7DA" transform="translate(46,98)"/>
<path d="M0 0 C3.96 1.98 3.96 1.98 8 4 C8 4.66 8 5.32 8 6 C5.36 5.67 2.72 5.34 0 5 C0 3.35 0 1.7 0 0 Z " fill="#DBFADB" transform="translate(174,105)"/>
<path d="M0 0 C0.33 0.66 0.66 1.32 1 2 C0.0625 4.125 0.0625 4.125 -1 6 C-3.9375 5.1875 -3.9375 5.1875 -7 4 C-7.33 3.01 -7.66 2.02 -8 1 C-3.25 1.875 -3.25 1.875 -1 3 C-0.67 2.01 -0.34 1.02 0 0 Z " fill="#D1F6D2" transform="translate(190,97)"/>
<path d="M0 0 C0.66 0.33 1.32 0.66 2 1 C0.02 3.31 -1.96 5.62 -4 8 C-4.99 7.01 -5.98 6.02 -7 5 C-6.01 5 -5.02 5 -4 5 C-3.896875 4.360625 -3.79375 3.72125 -3.6875 3.0625 C-3.460625 2.381875 -3.23375 1.70125 -3 1 C-2.01 0.67 -1.02 0.34 0 0 Z " fill="#63BC6C" transform="translate(109,96)"/>
<path d="M0 0 C1.32 0 2.64 0 4 0 C4 0.99 4 1.98 4 3 C4.66 3.33 5.32 3.66 6 4 C4.68 4 3.36 4 2 4 C1.67 4.66 1.34 5.32 1 6 C0.34 5.34 -0.32 4.68 -1 4 C-0.625 1.875 -0.625 1.875 0 0 Z " fill="#3CB74C" transform="translate(94,105)"/>
<path d="M0 0 C0.8971875 0.309375 0.8971875 0.309375 1.8125 0.625 C-3.56080889 4.01866878 -8.05696489 3.95212342 -14.1875 3.625 C-14.1875 3.295 -14.1875 2.965 -14.1875 2.625 C-13.57261719 2.57601562 -12.95773438 2.52703125 -12.32421875 2.4765625 C-11.51597656 2.40179688 -10.70773438 2.32703125 -9.875 2.25 C-9.07449219 2.18039063 -8.27398437 2.11078125 -7.44921875 2.0390625 C-4.37769438 1.47674543 -3.16065431 -0.54182645 0 0 Z " fill="#5BB065" transform="translate(134.1875,114.375)"/>
<path d="M0 0 C1.98 0.66 3.96 1.32 6 2 C6 2.33 6 2.66 6 3 C3.36 3.33 0.72 3.66 -2 4 C-2 4.99 -2 5.98 -2 7 C-2.66 7 -3.32 7 -4 7 C-2.92598892 4.08482708 -2.22189824 2.22189824 0 0 Z " fill="#5BB167" transform="translate(175,109)"/>
<path d="M0 0 C4.875 2.875 4.875 2.875 6 4 C6.04092937 6.33297433 6.04241723 8.66705225 6 11 C5.67 11 5.34 11 5 11 C5 9.35 5 7.7 5 6 C4.34 6 3.68 6 3 6 C0 2.53846154 0 2.53846154 0 0 Z " fill="#53AF5A" transform="translate(186,102)"/>
<path d="M0 0 C1.32 0 2.64 0 4 0 C3.67 0.99 3.34 1.98 3 3 C2.34 3 1.68 3 1 3 C1 3.66 1 4.32 1 5 C1.66 5 2.32 5 3 5 C3 5.66 3 6.32 3 7 C0.525 6.01 0.525 6.01 -2 5 C-1.34 3.35 -0.68 1.7 0 0 Z " fill="#52B65F" transform="translate(179,102)"/>
<path d="M0 0 C0.99386719 0.00902344 1.98773438 0.01804687 3.01171875 0.02734375 C4.15060547 0.04474609 4.15060547 0.04474609 5.3125 0.0625 C5.3125 0.3925 5.3125 0.7225 5.3125 1.0625 C4.64863281 1.09988281 3.98476562 1.13726562 3.30078125 1.17578125 C-1.75786379 1.5524103 -5.52930819 1.87455295 -9.6875 5.0625 C-9.375 3.125 -9.375 3.125 -8.6875 1.0625 C-5.53819107 0.01273036 -3.29935544 -0.03881595 0 0 Z " fill="#D0F1D2" transform="translate(181.6875,90.9375)"/>
<path d="M0 0 C1.32 0.33 2.64 0.66 4 1 C4.33 2.98 4.66 4.96 5 7 C3.0625 6.3125 3.0625 6.3125 1 5 C0.25 2.375 0.25 2.375 0 0 Z " fill="#3CB54C" transform="translate(174,99)"/>
<path d="M0 0 C1.98 0 3.96 0 6 0 C6 0.99 6 1.98 6 3 C3.69 3 1.38 3 -1 3 C-0.67 2.01 -0.34 1.02 0 0 Z " fill="#E8FDE8" transform="translate(123,99)"/>
<path d="M0 0 C1.32 0 2.64 0 4 0 C6.4294516 3.6441774 6.16179575 5.71241272 6 10 C5.67 10 5.34 10 5 10 C4.67 8.35 4.34 6.7 4 5 C3.01 4.67 2.02 4.34 1 4 C1.66 3.01 2.32 2.02 3 1 C2.01 0.67 1.02 0.34 0 0 Z " fill="#E3F8E4" transform="translate(166,91)"/>
<path d="M0 0 C-4.22949995 2.41685712 -7.12335991 3.34833144 -12 3 C-12 2.67 -12 2.34 -12 2 C-11.05125 1.690625 -10.1025 1.38125 -9.125 1.0625 C-3.1875 -0.95625 -3.1875 -0.95625 0 0 Z " fill="#68B46B" transform="translate(32,100)"/>
<path d="M0 0 C5.49152542 0.61016949 5.49152542 0.61016949 7.875 2.4375 C9 4 9 4 9 6 C6.525 5.01 6.525 5.01 4 4 C4 3.34 4 2.68 4 2 C2.68 1.34 1.36 0.68 0 0 Z " fill="#60B169" transform="translate(128,92)"/>
<path d="M0 0 C3.465 1.98 3.465 1.98 7 4 C7 4.33 7 4.66 7 5 C4.69 5 2.38 5 0 5 C0 3.33333333 0 1.66666667 0 0 Z " fill="#66B16C" transform="translate(120,84)"/>
<path d="M0 0 C0.66 0.33 1.32 0.66 2 1 C2 1.66 2 2.32 2 3 C2.66 3.33 3.32 3.66 4 4 C2.35 5.32 0.7 6.64 -1 8 C-0.67 5.36 -0.34 2.72 0 0 Z " fill="#52B559" transform="translate(112,88)"/>
</svg>
